<?xml version="1.0" encoding="UTF-8"?>
<svg viewBox="0 0 90 90" version="1.1" xmlns="http://www.w3.org/2000/svg" xmlns:xlink="http://www.w3.org/1999/xlink">
    <title>cash-on-delivery</title>
    <g id="payment-nachnahme" stroke="none" stroke-width="1" fill="none" fill-rule="evenodd">
        <g id="payment-nachnahme-post" transform="translate(26.749999, 23.249817)" fill="#625D52" fill-rule="nonzero">
            <path d="M21.255067,0.00545923149 L21.3552594,0.024583245 L33.8663254,3.29630668 C34.2336762,3.39237125 34.4658787,3.74474759 34.4212978,4.11148414 L34.4021706,4.21167746 L33.8,6.513 L36.0107296,7.33282115 C36.3667608,7.46482463 36.5628953,7.83849563 36.4821715,8.19901474 L36.4532038,8.29682061 L28.8863716,28.7012248 C28.7539389,29.0583373 28.3785055,29.2543695 28.0172718,29.1719622 L27.9192988,29.1424958 L19.97,26.154 L19.6968055,28.9128268 C19.6641591,29.2410013 19.4209662,29.5093417 19.0975763,29.5740197 L18.94724,29.5989029 C18.9156904,29.6033486 18.8810158,29.6078511 18.8433988,29.6122718 C18.3759049,29.6672104 17.876262,29.6637059 17.3807083,29.5634388 L17.2700005,29.5371832 L16.862881,31.3162844 C16.8155765,31.5224529 16.6839343,31.6973662 16.5028216,31.8004123 L16.4083042,31.8457584 C15.1437397,32.3471371 13.4311099,31.9716242 12.5048829,30.8734131 C11.5884878,31.7702224 10.5444748,32.2518057 8.98853403,32.3867355 L8.68505949,32.4083075 L0.7506304,32.4149714 C0.336416984,32.4153188 0.000348668662,32.0798144 2.69343216e-07,31.665601 C-0.00031806159,31.2859054 0.281572193,30.9718734 0.647605918,30.9219035 L0.74937069,30.9149714 L8.64193171,30.9095128 C9.97950959,30.8335985 10.7606839,30.4943961 11.4890006,29.7693853 L11.6341084,29.6192027 L16.3646738,24.5844156 L22.4453198,19.4061562 C23.0207705,18.8833825 23.0249747,18.0368787 22.3753091,17.289291 C21.6961544,16.5063512 21.0562859,16.3650143 20.5274194,16.7003364 L20.4295752,16.7687548 L14.3164722,21.8629148 C13.8494055,22.25213 13.1546723,21.951353 13.0910309,21.3745642 L13.086526,21.269997 L13.2031353,16.0492326 C13.2091252,15.781056 13.3578841,15.5364964 13.5932682,15.4078539 L17.05,13.521 L17.986,9.941 L10.4480005,13.3701832 L3.98572244,22.0474118 L3.64355964,22.3031182 L1.02429293,23.2681989 C0.635622704,23.4114062 0.204450775,23.2124192 0.061243472,22.823749 C-0.0700298895,22.4674679 0.0862350295,22.0754737 0.412565843,21.9023094 L0.505693407,21.8606995 L2.91500054,20.9721832 L9.36178226,12.3195599 L9.65272878,12.0849028 L18.475,8.072 L20.4399089,0.560439945 C20.5359691,0.193094147 20.8883346,-0.0391106428 21.255067,0.00545923149 Z M17.789,25.334 L17.3979008,25.6685857 L13.5528486,29.7653126 C13.9283796,30.3315947 14.7643138,30.634369 15.4605358,30.5493799 L15.5000005,30.5431832 L16.0005762,28.367119 C16.1063329,27.9061959 16.6014371,27.664908 17.0222775,27.8432698 L17.111152,27.8879863 C17.2320836,27.9589479 17.3709418,28.0153434 17.5256045,28.0572359 C17.7432265,28.1161819 17.977311,28.1436166 18.2100219,28.1467008 L18.2660005,28.1451832 L18.518,25.608 L17.789,25.334 Z M25.9812839,26.8116041 L27.7410005,27.4731832 L28.3992139,25.6986602 C27.4571911,25.6248125 26.5373322,26.0481242 25.9812839,26.8116041 Z M22.8813246,7.70346482 L20.0835601,15.2455791 C20.5855846,15.0254992 21.1208397,14.9777044 21.6516982,15.100119 C21.6931273,14.8909293 21.7530119,14.6831351 21.8287587,14.4788976 C22.6623764,12.2283983 25.164246,11.0802204 27.4149754,11.9150168 C29.6663446,12.7498017 30.8145033,15.2509326 29.9797093,17.5023264 C29.1448296,19.7532804 26.6429492,20.9012728 24.3930429,20.0661103 C24.2486663,20.0127051 24.1079023,19.9519803 23.9711825,19.8842884 C23.862236,20.0670365 23.728734,20.2399868 23.5719096,20.4010046 L23.4359254,20.5322666 L19.095,24.223 L24.5438262,26.270808 C25.4378482,24.7510843 27.1972452,23.9437226 28.9333095,24.2566969 L33.60492,11.6594617 C32.1433976,10.7504697 31.373104,9.02729299 31.6784687,7.32680412 L27.2658441,5.6901123 C26.3716779,7.20800371 24.6143598,8.01519375 22.8813246,7.70346482 Z M16.529,15.514 L14.6920005,16.5161832 L14.6230005,19.6551832 L15.676,18.777 L16.529,15.514 Z M23.2352559,15.0002091 C23.1318895,15.2789178 23.0736512,15.5664124 23.0599366,15.8563823 C23.1628423,15.944173 23.2624741,16.0399693 23.3601382,16.1428875 L23.5079665,16.3058852 C24.0586944,16.9396224 24.3464414,17.6720259 24.3663568,18.3856679 C24.536016,18.4959148 24.7198514,18.587666 24.9142364,18.6595696 C26.388094,19.2066635 28.0265671,18.4548471 28.5733038,16.9807677 C29.120053,15.506215 28.3681263,13.8682298 26.8934167,13.3214224 C25.4194586,12.7747307 23.7810941,13.526622 23.2352559,15.0002091 Z M21.7010005,1.66518321 L19.9379019,8.41669324 C19.9846509,8.64707206 19.9192846,8.8843661 19.768266,9.0579561 L18.5231477,13.8227769 C18.5702306,14.0516161 18.5069332,14.2900033 18.3550217,14.4652168 L17.658,17.126 L17.843,16.972 L22.9216539,3.27969516 C23.0536705,2.92371029 23.4272979,2.72760129 23.7877869,2.80829683 L23.8855849,2.83725548 L32.386,5.988 L32.7600005,4.55718321 L21.7010005,1.66518321 Z M34.1437219,10.2066477 L34.7850005,8.47818321 L33.120663,7.86198181 C33.0513867,8.76420971 33.4385284,9.64615854 34.1437219,10.2066477 Z M24.0670005,4.50418321 L23.4162042,6.26132943 C24.3521673,6.33350076 25.2668827,5.91349013 25.823061,5.15622303 L24.0670005,4.50418321 Z" id="Combined-Shape"></path>
        </g>
    </g>
</svg>