<?xml version="1.0" encoding="UTF-8"?>
<svg width="90px" height="90px" viewBox="0 0 90 90" version="1.1" xmlns="http://www.w3.org/2000/svg" xmlns:xlink="http://www.w3.org/1999/xlink">
    <title>payment-ideal</title>
    <g id="Symbols" stroke="none" stroke-width="1" fill="none" fill-rule="evenodd">
        <g id="footer-marken" transform="translate(-916.000000, -110.000000)" fill-rule="nonzero">
            <g id="Group-9" transform="translate(435.000000, 110.000000)">
                <g id="payment-ideal" transform="translate(481.000000, 0.000000)">
                    <rect id="Rectangle" fill="#FFFFFF" x="0" y="0" width="90" height="90"></rect>
                    <g id="ideal-logo" transform="translate(17.000000, 21.000000)">
                        <g id="Group">
                            <path d="M0,3.55819125 L0,44.4418087 C0,46.3988139 1.61711859,48 3.59359686,48 L28.2636393,48 C46.9144071,48 55,37.6634544 55,23.9466271 C55,10.3009637 46.9144071,0 28.2636393,0 L3.59359686,0 C1.61711859,0 0,1.60118606 0,3.55819125 Z" id="Path" fill="#FFFFFF"></path>
                            <path d="M16.5125776,10.0340993 L16.5125776,40.2431431 L29.790918,40.2431431 C41.8474355,40.2431431 47.0761189,33.5003706 47.0761189,23.9644181 C47.0761189,14.8376575 41.8474355,7.75685693 29.790918,7.75685693 L18.8124796,7.75685693 C17.5367527,7.75685693 16.5125776,8.78873239 16.5125776,10.0340993 Z" id="Path" fill="#CC0066"></path>
                            <path d="M28.2636393,44.744255 L6.80986606,44.744255 C4.90525972,44.744255 3.36001307,43.2142328 3.36001307,41.3283914 L3.36001307,6.68939956 C3.36001307,4.80355819 4.90525972,3.27353595 6.80986606,3.27353595 L28.2636393,3.27353595 C48.6213656,3.27353595 51.6579549,16.2431431 51.6579549,23.9644181 C51.6579549,37.3610082 43.3387782,44.744255 28.2636393,44.744255 Z M6.80986606,4.41215715 C5.53413917,4.41215715 4.50996406,5.42624166 4.50996406,6.68939956 L4.50996406,41.3283914 C4.50996406,42.5915493 5.53413917,43.6056338 6.80986606,43.6056338 L28.2636393,43.6056338 C42.6020908,43.6056338 50.5080039,36.6315789 50.5080039,23.9644181 C50.5080039,6.9562639 36.5648481,4.41215715 28.2636393,4.41215715 L6.80986606,4.41215715 Z" id="Shape" fill="#000000"></path>
                        </g>
                        <g id="Group" transform="translate(18.075792, 19.872498)" fill="#FFFFFF">
                            <path d="M3.10846129,0.0177909563 C3.57562888,0.0177909563 4.0068605,0.0889547813 4.42012414,0.231282431 C4.83338778,0.373610082 5.17477948,0.604892513 5.48023522,0.889547813 C5.76772297,1.19199407 6.00130676,1.56560415 6.18098661,1.9925871 C6.34269846,2.43736101 6.43253839,2.95329874 6.43253839,3.55819125 C6.43253839,4.09191994 6.36066645,4.57227576 6.23489056,5.01704967 C6.09114668,5.46182357 5.89349886,5.85322461 5.62397909,6.17346182 C5.35445933,6.49369904 5.01306762,6.74277242 4.59980399,6.93847294 C4.18654035,7.11638251 3.70140477,7.22312824 3.14439726,7.22312824 L0,7.22312824 L0,0 L3.10846129,0 L3.10846129,0.0177909563 Z M3.00065338,5.90659748 C3.23423718,5.90659748 3.44985299,5.87101557 3.68343679,5.79985174 C3.8990526,5.72868792 4.09670042,5.60415122 4.25841228,5.42624166 C4.42012414,5.2483321 4.56386802,5.03484062 4.67167592,4.75018532 C4.77948383,4.46553002 4.83338778,4.14529281 4.83338778,3.73610082 C4.83338778,3.38028169 4.79745181,3.04225352 4.72557988,2.75759822 C4.65370794,2.47294292 4.52793205,2.20607858 4.36622019,2.01037806 C4.20450833,1.81467754 3.98889252,1.63676798 3.71937275,1.53002224 C3.44985299,1.4232765 3.12642927,1.36990363 2.73113362,1.36990363 L1.58118262,1.36990363 L1.58118262,5.92438844 L3.00065338,5.92438844 L3.00065338,5.90659748 Z" id="Shape"></path>
                            <polygon id="Path" points="12.9189807 0.0177909563 12.9189807 1.35211268 9.07383208 1.35211268 9.07383208 2.89992587 12.613525 2.89992587 12.613525 4.12750185 9.07383208 4.12750185 9.07383208 5.88880652 13.0088206 5.88880652 13.0088206 7.22312824 7.47468148 7.22312824 7.47468148 0 12.9189807 0"></polygon>
                            <path d="M18.4171839,0.0177909563 L21.1483175,7.2409192 L19.477295,7.2409192 L18.9202875,5.63973314 L16.1891539,5.63973314 L15.6141784,7.2409192 L13.9970598,7.2409192 L16.7461614,0.0177909563 L18.4171839,0.0177909563 L18.4171839,0.0177909563 Z M18.5070238,4.44773907 L17.5906566,1.79688658 L17.5726887,1.79688658 L16.6203855,4.44773907 L18.5070238,4.44773907 Z" id="Shape"></path>
                            <polygon id="Path" points="23.7536753 0.0177909563 23.7536753 5.90659748 27.3113362 5.90659748 27.3113362 7.2409192 22.1545247 7.2409192 22.1545247 0.0177909563 23.7536753 0.0177909563"></polygon>
                        </g>
                        <ellipse id="Oval" fill="#000000" cx="10.5112708" cy="23.5018532" rx="3.36001307" ry="3.32690882"></ellipse>
                        <path d="M13.0447566,40.2431431 L13.0447566,40.2431431 C10.2237831,40.2431431 7.95981705,37.9836916 7.95981705,35.2083024 L7.95981705,31.2765011 C7.95981705,29.8888065 9.09180007,28.7501853 10.5112708,28.7501853 L10.5112708,28.7501853 C11.9127736,28.7501853 13.0627246,29.8710156 13.0627246,31.2765011 L13.0627246,40.2431431 L13.0447566,40.2431431 Z" id="Path" fill="#000000"></path>
                    </g>
                </g>
            </g>
        </g>
    </g>
</svg>