<?xml version="1.0" encoding="UTF-8"?>
<svg viewBox="0 0 90 90" version="1.1" xmlns="http://www.w3.org/2000/svg" xmlns:xlink="http://www.w3.org/1999/xlink">
    <title>invoice</title>
    <g id="payment-rechnung" stroke="none" stroke-width="1" fill="none" fill-rule="evenodd">
        <g transform="translate(26.750080, 20.000000)" fill="#625D52" fill-rule="nonzero" id="Combined-Shape">
            <path d="M19.8135115,5.27687941 L19.9368983,5.3899511 L21.616,7.068 L23.1846056,5.50060727 C23.901634,4.78189569 25.0416847,4.74406877 25.8026889,5.38657301 L25.9258757,5.49995632 L35.9310356,15.5040291 C36.6894965,16.2598224 36.6894965,17.4898912 35.931988,18.2456227 L35.931988,18.2456227 L19.3049156,34.873784 C18.5475612,35.6311384 17.320569,35.6303149 16.5631348,34.8737695 L16.5631348,34.8737695 L14.885,33.195 L13.3145748,34.7663038 C12.596923,35.4831142 11.4588933,35.5203485 10.6970474,34.878241 L10.5736928,34.7649329 L0.566120018,24.7584472 C-0.148869273,24.0409344 -0.186992517,22.9032852 0.45395766,22.141029 L0.567070785,22.0175985 L17.1963645,5.38939436 C17.913639,4.67380161 19.0514916,4.63613883 19.8135115,5.27687941 Z M24.864623,6.56002326 C24.6938293,6.3888286 24.4173022,6.3888286 24.2458698,6.56066271 L24.2458698,6.56066271 L7.61719888,23.1882448 C7.44684958,23.3585941 7.44697382,23.6361447 7.61830211,23.8070721 L7.61830211,23.8070721 L17.6234979,33.8128125 C17.795177,33.9842901 18.0729028,33.9844765 18.2442381,33.8131411 L18.2442381,33.8131411 L34.8719333,17.1843578 C35.0425306,17.0141606 35.0425306,16.7362422 34.8713394,16.5656515 L34.8713394,16.5656515 Z M18.3251098,6.3947119 L18.2563845,6.45069398 L1.62833495,23.077654 C1.47841801,23.2279228 1.45977369,23.459658 1.57171624,23.6299094 L1.62768474,23.6986933 L11.6343241,33.7042438 C11.7848364,33.8547561 12.0154511,33.8736649 12.1854772,33.7614509 L12.2542258,33.7053326 L13.825,32.135 L6.55825033,24.8683399 C5.84041256,24.1521852 5.80213817,23.0121225 6.44338904,22.2508084 L6.55655607,22.1275673 L20.555,8.129 L18.8769263,6.4512987 C18.7267564,6.30148089 18.4952166,6.28275366 18.3251098,6.3947119 Z M20.8323315,20.0762866 L21.8929917,21.1369468 L15.1696557,27.8602829 L14.1089955,26.7996227 L20.8323315,20.0762866 Z M17.9845553,17.2296422 L19.0452585,18.2902594 L12.3235556,25.0125067 L11.2628525,23.9518894 L17.9845553,17.2296422 Z M23.2005205,9.80776993 C23.7854071,9.22179214 24.7361424,9.22179214 25.3204318,9.8082658 L25.3204318,9.8082658 L28.2873606,12.7741081 C28.869359,13.3593761 28.8700321,14.3058049 28.28596,14.8909664 L28.28596,14.8909664 L24.8023621,18.3756513 C24.2177279,18.9581081 23.2715181,18.9574356 22.6843306,18.3746142 L22.6843306,18.3746142 L19.7179949,15.4077336 C19.1343391,14.8229869 19.134676,13.8747038 19.7190342,13.2892558 L19.7190342,13.2892558 Z M24.2589203,10.869 L20.7799203,14.349 L23.7430532,17.3120238 L27.2229203,13.831 L24.2589203,10.869 Z M23.6468779,13.4574753 L24.7075381,14.5181355 L24.5022994,14.7233742 L23.4416392,13.662714 L23.6468779,13.4574753 Z M14.1285081,1.45157388 L15.2597706,2.58174762 L14.1996212,3.64291833 L13.0683587,2.5127446 L14.1285081,1.45157388 Z M22.9017224,1.45170147 L23.9621272,2.51261701 L22.831409,3.64279074 L21.7710043,2.58187521 L22.9017224,1.45170147 Z M19.2654513,0 L19.2654513,1.59835746 L17.7654513,1.59835746 L17.7654513,0 L19.2654513,0 Z"></path>
        </g>
    </g>
</svg>