<?xml version="1.0" encoding="UTF-8"?>
<svg viewBox="0 0 90 90" version="1.1" xmlns="http://www.w3.org/2000/svg" xmlns:xlink="http://www.w3.org/1999/xlink">
    <title>mastercard</title>
    <g id="payment-mastercard" stroke="none" stroke-width="1" fill="none" fill-rule="evenodd">
        <g id="Mastercard-logo" transform="translate(20.565743, 26.326581)" fill-rule="nonzero">
            <g id="Group" transform="translate(24.771636, 34.707249) scale(-1, 1) rotate(-180.000000) translate(-24.771636, -34.707249) translate(1.920085, 32.067661)" fill="#231F20">
                <path d="M45.2311757,0.466422858 L45.2311757,0.37696 L45.3221148,0.37696 C45.3422171,0.37696 45.3594476,0.381302858 45.3718919,0.388251429 C45.383379,0.3952 45.3900797,0.40736 45.3900797,0.422125715 C45.3900797,0.436891429 45.383379,0.448182858 45.3718919,0.455131429 C45.3594476,0.462948572 45.3422171,0.466422858 45.3221148,0.466422858 L45.2311757,0.466422858 Z M45.323072,0.52896 C45.3699774,0.52896 45.4063531,0.519405715 45.4321989,0.500297143 C45.4580447,0.481188572 45.470489,0.455131429 45.470489,0.422125715 C45.470489,0.394331429 45.4609165,0.371748572 45.4398569,0.353508572 C45.4197546,0.336137143 45.391037,0.324845715 45.3527469,0.320502858 L45.4733608,0.19456 L45.37955,0.19456 L45.2675513,0.319634286 L45.2311757,0.319634286 L45.2311757,0.19456 L45.1526809,0.19456 L45.1526809,0.52896 L45.323072,0.52896 Z M45.2991407,0.07904 C45.3422171,0.07904 45.3824217,0.086857143 45.4187973,0.101622858 C45.4561302,0.116388572 45.4886768,0.136365715 45.5164372,0.161554286 C45.5441975,0.186742858 45.5662144,0.216274286 45.5824877,0.251017143 C45.5978037,0.284891429 45.606419,0.321371429 45.606419,0.360457143 C45.606419,0.399542858 45.5978037,0.436022858 45.5824877,0.469897143 C45.5662144,0.503771429 45.5441975,0.534171429 45.5164372,0.55936 C45.4886768,0.584548572 45.4561302,0.604525719 45.4187973,0.619291429 C45.3824217,0.633188569 45.3422171,0.640137139 45.2991407,0.640137139 C45.2560643,0.640137139 45.2149024,0.633188569 45.1775695,0.619291429 C45.1392794,0.604525719 45.1057755,0.584548572 45.0780152,0.55936 C45.0502548,0.534171429 45.028238,0.503771429 45.0129219,0.469897143 C44.9966486,0.436022858 44.9889906,0.399542858 44.9889906,0.360457143 C44.9889906,0.321371429 44.9966486,0.284891429 45.0129219,0.251017143 C45.028238,0.216274286 45.0502548,0.186742858 45.0780152,0.161554286 C45.1057755,0.136365715 45.1392794,0.116388572 45.1775695,0.101622858 C45.2149024,0.086857143 45.2560643,0.07904 45.2991407,0.07904 L45.2991407,0.07904 Z M45.2991407,0.720914289 C45.3556186,0.720914289 45.4073103,0.711359999 45.4570875,0.692251429 C45.5059074,0.674011429 45.5480265,0.647954289 45.5853594,0.614948569 C45.621735,0.582811429 45.6504526,0.544594286 45.6715122,0.500297143 C45.6925718,0.456868572 45.7031016,0.409965715 45.7031016,0.360457145 C45.7031016,0.310948572 45.6925718,0.264045715 45.6715122,0.220617143 C45.6504526,0.177188572 45.621735,0.138971429 45.5853594,0.105965715 C45.5480265,0.073828572 45.5059074,0.047771429 45.4570875,0.028662858 C45.4073103,0.009554286 45.3556186,2.77555756e-17 45.2991407,2.77555756e-17 C45.2417055,2.77555756e-17 45.1890566,0.009554286 45.1392794,0.028662858 C45.0895022,0.047771429 45.0464258,0.073828572 45.0100502,0.105965715 C44.9736746,0.138971429 44.944957,0.177188572 44.9238974,0.220617143 C44.9028378,0.264045715 44.892308,0.310948572 44.892308,0.360457145 C44.892308,0.409965715 44.9028378,0.456868572 44.9238974,0.500297143 C44.944957,0.544594286 44.9736746,0.582811429 45.0100502,0.614948569 C45.0464258,0.647954289 45.0895022,0.674011429 45.1392794,0.692251429 C45.1890566,0.711359999 45.2417055,0.720914289 45.2991407,0.720914289 L45.2991407,0.720914289 Z M8.00359485,2.00900572 C8.00359485,2.64653714 8.46403369,3.17028572 9.21643478,3.17028572 C9.93533204,3.17028572 10.4206594,2.66912 10.4206594,2.00900572 C10.4206594,1.34889143 9.93533204,0.847725719 9.21643478,0.847725719 C8.46403369,0.847725719 8.00359485,1.37147429 8.00359485,2.00900572 L8.00359485,2.00900572 Z M11.2400682,2.00900572 L11.2400682,3.82258286 L10.3708822,3.82258286 L10.3708822,3.38221714 C10.0951933,3.7088 9.67687362,3.91378286 9.10826516,3.91378286 C7.98732154,3.91378286 7.10856301,3.11643429 7.10856301,2.00900572 C7.10856301,0.900708569 7.98732154,0.104228572 9.10826516,0.104228572 C9.67687362,0.104228572 10.0951933,0.309211429 10.3708822,0.635794289 L10.3708822,0.195428572 L11.2400682,0.195428572 L11.2400682,2.00900572 Z M40.6124285,2.00900572 C40.6124285,2.64653714 41.0728674,3.17028572 41.8252685,3.17028572 C42.5451229,3.17028572 43.0294931,2.66912 43.0294931,2.00900572 C43.0294931,1.34889143 42.5451229,0.847725719 41.8252685,0.847725719 C41.0728674,0.847725719 40.6124285,1.37147429 40.6124285,2.00900572 L40.6124285,2.00900572 Z M43.8498592,2.00900572 L43.8498592,5.27917714 L42.9797159,5.27917714 L42.9797159,3.38221714 C42.704027,3.7088 42.2857073,3.91378286 41.7170988,3.91378286 C40.5961552,3.91378286 39.7173967,3.11643429 39.7173967,2.00900572 C39.7173967,0.900708569 40.5961552,0.104228572 41.7170988,0.104228572 C42.2857073,0.104228572 42.704027,0.309211429 42.9797159,0.635794289 L42.9797159,0.195428572 L43.8498592,0.195428572 L43.8498592,2.00900572 Z M22.0292702,3.20763429 C22.5892634,3.20763429 22.9491906,2.88886857 23.0410869,2.32777143 L20.966719,2.32777143 C21.0595726,2.85152 21.4099273,3.20763429 22.0292702,3.20763429 L22.0292702,3.20763429 Z M22.0465007,3.91378286 C20.8748227,3.91378286 20.0554139,3.13988572 20.0554139,2.00900572 C20.0554139,0.855542859 20.9083266,0.104228572 22.1048932,0.104228572 C22.7070055,0.104228572 23.2583834,0.240594286 23.7437108,0.612342859 L23.3177331,1.19689143 C22.9826945,0.954559999 22.5557595,0.817325719 22.1546704,0.817325719 C21.5946772,0.817325719 21.0844612,1.05270857 20.959061,1.70587429 L23.9275035,1.70587429 C23.9361188,1.80402286 23.944734,1.90304 23.944734,2.00900572 C23.9361188,3.13988572 23.1664871,3.91378286 22.0465007,3.91378286 L22.0465007,3.91378286 Z M32.5418259,2.00900572 C32.5418259,2.64653714 33.0022648,3.17028572 33.7546659,3.17028572 C34.4735631,3.17028572 34.9588905,2.66912 34.9588905,2.00900572 C34.9588905,1.34889143 34.4735631,0.847725719 33.7546659,0.847725719 C33.0022648,0.847725719 32.5418259,1.37147429 32.5418259,2.00900572 L32.5418259,2.00900572 Z M35.7782993,2.00900572 L35.7782993,3.82258286 L34.9091134,3.82258286 L34.9091134,3.38221714 C34.6324671,3.7088 34.2151047,3.91378286 33.6464962,3.91378286 C32.5255526,3.91378286 31.6467941,3.11643429 31.6467941,2.00900572 C31.6467941,0.900708569 32.5255526,0.104228572 33.6464962,0.104228572 C34.2151047,0.104228572 34.6324671,0.309211429 34.9091134,0.635794289 L34.9091134,0.195428572 L35.7782993,0.195428572 L35.7782993,2.00900572 Z M27.633031,2.00900572 C27.633031,0.908525719 28.4773284,0.104228572 29.7657914,0.104228572 C30.3679037,0.104228572 30.7689928,0.225828572 31.2035858,0.536777143 L30.7862234,1.17430857 C30.4598,0.961508569 30.1171033,0.847725719 29.7399455,0.847725719 C29.0459369,0.855542859 28.5357209,1.31067429 28.5357209,2.00900572 C28.5357209,2.70733714 29.0459369,3.16246857 29.7399455,3.17028572 C30.1171033,3.17028572 30.4598,3.05650286 30.7862234,2.84370286 L31.2035858,3.48123429 C30.7689928,3.79218286 30.3679037,3.91378286 29.7657914,3.91378286 C28.4773284,3.91378286 27.633031,3.10948572 27.633031,2.00900572 L27.633031,2.00900572 Z M38.8395954,3.91378286 C38.3379947,3.91378286 38.0115713,3.70098286 37.7856595,3.38221714 L37.7856595,3.82258286 L36.9241315,3.82258286 L36.9241315,0.195428572 L37.7942748,0.195428572 L37.7942748,2.22875429 C37.7942748,2.82893714 38.078579,3.16246857 38.6471875,3.16246857 C38.8233221,3.16246857 39.0071147,3.13988572 39.1909074,3.07126857 L39.4589383,3.81476572 C39.2665304,3.88338286 39.01573,3.91378286 38.8395954,3.91378286 L38.8395954,3.91378286 Z M15.5390928,3.53421714 C15.1207731,3.78436572 14.5445066,3.91378286 13.9088904,3.91378286 C12.8961164,3.91378286 12.2442269,3.47341714 12.2442269,2.75250286 C12.2442269,2.16100572 12.7295544,1.79620572 13.6236289,1.68242286 L14.0342906,1.62944 C14.5110028,1.56864 14.7359573,1.45485714 14.7359573,1.24987429 C14.7359573,0.969325719 14.4181492,0.809508569 13.8246521,0.809508569 C13.2225398,0.809508569 12.7879468,0.984091429 12.4950273,1.18907429 L12.0853229,0.574994286 C12.562035,0.256228572 13.1641474,0.104228572 13.8160369,0.104228572 C14.9704843,0.104228572 15.6396044,0.597577143 15.6396044,1.28809143 C15.6396044,1.92562286 15.1131151,2.25915429 14.2429718,2.37293714 L13.8332674,2.42678857 C13.4570669,2.47195429 13.1555321,2.53970286 13.1555321,2.78290286 C13.1555321,3.04868572 13.4398363,3.20763429 13.9165485,3.20763429 C14.4267645,3.20763429 14.9207072,3.03305143 15.1628923,2.89668572 L15.5390928,3.53421714 Z M26.7542725,3.91378286 C26.2526717,3.91378286 25.9262484,3.70098286 25.7012938,3.38221714 L25.7012938,3.82258286 L24.8397659,3.82258286 L24.8397659,0.195428572 L25.7089519,0.195428572 L25.7089519,2.22875429 C25.7089519,2.82893714 25.9932561,3.16246857 26.5618646,3.16246857 C26.7379992,3.16246857 26.9217918,3.13988572 27.1055844,3.07126857 L27.3736154,3.81476572 C27.1812074,3.88338286 26.9304071,3.91378286 26.7542725,3.91378286 L26.7542725,3.91378286 Z M19.3365166,3.82258286 L17.9149955,3.82258286 L17.9149955,4.92306286 L17.036237,4.92306286 L17.036237,3.82258286 L16.2254434,3.82258286 L16.2254434,3.10166857 L17.036237,3.10166857 L17.036237,1.44704 C17.036237,0.605394289 17.3961642,0.104228572 18.4242542,0.104228572 C18.801412,0.104228572 19.236005,0.210194286 19.511694,0.384777143 L19.2608936,1.06052572 C19.001478,0.924159999 18.7171738,0.855542859 18.491262,0.855542859 C18.056669,0.855542859 17.9149955,1.09874286 17.9149955,1.46267429 L17.9149955,3.10166857 L19.3365166,3.10166857 L19.3365166,3.82258286 Z M6.33988861,0.195428572 L6.33988861,2.47195429 C6.33988861,3.32923429 5.73777629,3.90596572 4.76712144,3.91378286 C4.25690543,3.9216 3.73041611,3.77741714 3.36187359,3.26843429 C3.08618464,3.67058286 2.65159164,3.91378286 2.04086404,3.91378286 C1.61392906,3.91378286 1.19656662,3.8 0.870143252,3.37526857 L0.870143252,3.82258286 L0,3.82258286 L0,0.195428572 L0.877801282,0.195428572 L0.877801282,2.20617143 C0.877801282,2.83588572 1.2626171,3.17028572 1.8570714,3.17028572 C2.43429514,3.17028572 2.7262574,2.82893714 2.7262574,2.21398857 L2.7262574,0.195428572 L3.60501593,0.195428572 L3.60501593,2.20617143 C3.60501593,2.83588572 4.00610506,3.17028572 4.5833288,3.17028572 C5.17682585,3.17028572 5.46113008,2.82893714 5.46113008,2.21398857 L5.46113008,0.195428572 L6.33988861,0.195428572 Z" id="Shape"></path>
            </g>
            <g id="Group" transform="translate(47.437181, 23.808986) scale(-1, 1) rotate(-180.000000) translate(-47.437181, -23.808986) translate(46.765847, 23.308986)" fill="#F79410">
                <path d="M1.34266667,1.11022302e-16 L1.34266667,1 L1.18154667,1 L0.995093334,0.313114754 L0.809653334,1 L0.64752,1 L0.64752,1.11022302e-16 L0.762026667,1.11022302e-16 L0.762026667,0.754098361 L0.936319997,0.103278689 L1.05488,0.103278689 L1.22917334,0.755737705 L1.22917334,1.11022302e-16 L1.34266667,1.11022302e-16 Z M0.320213334,0 L0.320213334,0.829508197 L0.526933334,0.829508197 L0.526933334,0.998360656 L-2.77555756e-17,0.998360656 L-2.77555756e-17,0.829508197 L0.20672,0.829508197 L0.20672,0 L0.320213334,0 Z" id="Shape"></path>
            </g>
            <polygon id="Path" fill="#FF5F00" points="30.628514 26.3489863 17.708514 26.3489863 17.708514 2.7889863 30.628514 2.7889863"></polygon>
            <g id="Group" transform="translate(12.075646, 14.568986) scale(-1, 1) rotate(-180.000000) translate(-12.075646, -14.568986) translate(0.000000, 0.000000)" fill="#EB001B">
                <path d="M18.4501565,14.5689863 C18.4501565,19.2159826 20.6795504,23.3553938 24.1512928,26.0229938 C21.6124982,27.9736763 18.4083969,29.1379726 14.9262146,29.1379726 C6.68248725,29.1379726 -2.22044605e-16,22.6153199 -2.22044605e-16,14.5689863 C-2.22044605e-16,6.5226525 6.68248725,-2.77555756e-16 14.9262146,-2.77555756e-16 C18.4083969,-2.77555756e-16 21.6124982,1.16429625 24.1512928,3.11497875 C20.6795504,5.78257875 18.4501565,9.92198995 18.4501565,14.5689863" id="Path"></path>
            </g>
            <g id="Group" transform="translate(36.594748, 14.568986) scale(-1, 1) rotate(-180.000000) translate(-36.594748, -14.568986) translate(24.320982, 0.000000)" fill="#F79E1B">
                <path d="M24.5475323,14.5689863 C24.5475323,6.5226525 17.7556754,-2.77555756e-16 9.37702616,-2.77555756e-16 C5.83785231,-2.77555756e-16 2.58131077,1.16429625 8.8817842e-16,3.11497875 C3.52952769,5.78257875 5.79540923,9.92198995 5.79540923,14.5689863 C5.79540923,19.2159826 3.52952769,23.3553938 8.8817842e-16,26.0229938 C2.58131077,27.9736763 5.83785231,29.1379726 9.37702616,29.1379726 C17.7556754,29.1379726 24.5475323,22.6153199 24.5475323,14.5689863" id="Path"></path>
            </g>
        </g>
    </g>
</svg>