<?xml version="1.0" encoding="UTF-8"?>
<svg viewBox="0 0 90 90" version="1.1" xmlns="http://www.w3.org/2000/svg" xmlns:xlink="http://www.w3.org/1999/xlink">
    <title>prepayment</title>
    <g id="payment-vorkasse" stroke="none" stroke-width="1" fill="none" fill-rule="evenodd">
        <g id="Group-2" transform="translate(26.750000, 21.249999)" fill="#625D52" fill-rule="nonzero">
            <path d="M30.20385,0.23597706 C30.4938377,-0.0721349099 30.981143,-0.079516628 31.2803301,0.219670498 L31.2803301,0.219670498 L36.2803301,5.2196705 C36.5669688,5.50630918 36.5739751,5.96883491 36.29615,6.26402411 L36.29615,6.26402411 L29.956,13 L34.75,13.0000006 C35.1296958,13.0000006 35.443491,13.2821545 35.4931534,13.64823 L35.5,13.7500006 L35.5,33.7500006 C35.5,34.1296963 35.2178461,34.4434915 34.8517706,34.493154 L34.75,34.5000006 L0.75,34.5000006 C0.370304234,34.5000006 0.0565090391,34.2178467 0.006846616,33.8517711 L0,33.7500006 L0,13.7500006 C0,13.3703048 0.282153882,13.0565096 0.648229443,13.0068472 L0.75,13.0000006 L18.189,13 Z M16.777,14.5 L1.5,14.5000006 L1.5,33.0000006 L34,33.0000006 L34,14.5000006 L28.544,14.5 L20.29615,23.2640241 C20.2851656,23.275695 20.2738981,23.2869344 20.2623685,23.297742 C20.2506392,23.3089231 20.2380932,23.3199298 20.2251549,23.3305303 C20.2101166,23.3427377 20.1949213,23.3542523 20.179402,23.3651126 C20.1657229,23.3747225 20.1511762,23.3841587 20.1362488,23.3931113 C20.120155,23.4028178 20.1038678,23.4117898 20.0873332,23.4201127 C20.0757888,23.4258062 20.0639979,23.4313488 20.0520148,23.4366018 L20.03292,23.4448167 C20.0226408,23.4489947 20.0122867,23.4529358 20.0018659,23.4566399 L19.9560408,23.4711435 L12.9560408,25.4711435 C12.4235572,25.6232817 11.9288952,25.1688917 12.0073082,24.6432265 L12.028857,24.5439597 L14.028857,17.5439597 C14.0317811,17.5334722 14.0327089,17.5304103 14.0336568,17.5273531 L14.028857,17.5439597 C14.0395252,17.5066213 14.0528416,17.4707565 14.0685442,17.4365108 C14.0721702,17.428453 14.0759239,17.4206594 14.0798206,17.4129185 C14.0931396,17.3864565 14.1078586,17.3610378 14.1238991,17.3367222 C14.1472012,17.3016401 14.1738669,17.2678341 14.20385,17.2359771 L14.137041,17.317464 C14.1525901,17.2954278 14.16925,17.2743603 14.186917,17.2543188 L14.20385,17.2359771 L16.777,14.5 Z M30.75,28.0000006 C31.1642136,28.0000006 31.5,28.335787 31.5,28.7500006 C31.5,29.1296963 31.2178461,29.4434915 30.8517706,29.493154 L30.75,29.5000006 L4.75,29.5000006 C4.33578644,29.5000006 4,29.1642141 4,28.7500006 C4,28.3703048 4.28215388,28.0565096 4.64822944,28.0068472 L4.75,28.0000006 L30.75,28.0000006 Z M30.75,23.0000006 C31.1642136,23.0000006 31.5,23.335787 31.5,23.7500006 C31.5,24.1296963 31.2178461,24.4434915 30.8517706,24.493154 L30.75,24.5000006 L24.75,24.5000006 C24.3357864,24.5000006 24,24.1642141 24,23.7500006 C24,23.3703048 24.2821539,23.0565096 24.6482294,23.0068472 L24.75,23.0000006 L30.75,23.0000006 Z M15.121,19.182 L13.842,23.6570006 L18.317,22.378 L15.121,19.182 Z M26.887,5.948 L15.795,17.7340006 L19.733,21.6720006 L30.825,9.886 L26.887,5.948 Z M9.75,18.0000006 C10.1642136,18.0000006 10.5,18.335787 10.5,18.7500006 C10.5,19.1296963 10.2178461,19.4434915 9.85177056,19.493154 L9.75,19.5000006 L4.75,19.5000006 C4.33578644,19.5000006 4,19.1642141 4,18.7500006 C4,18.3703048 4.28215388,18.0565096 4.64822944,18.0068472 L4.75,18.0000006 L9.75,18.0000006 Z M30.766,1.82700058 L27.916,4.855 L31.854,8.793 L34.704,5.76500058 L30.766,1.82700058 Z" id="Combined-Shape"></path>
        </g>
    </g>
</svg>