<?xml version="1.0" encoding="UTF-8"?>
<svg viewBox="0 0 90 90" version="1.1" xmlns="http://www.w3.org/2000/svg" xmlns:xlink="http://www.w3.org/1999/xlink">
    <title>visa</title>
    <g id="payment-visa" stroke="none" stroke-width="1" fill="none" fill-rule="evenodd">
        <g id="Visa_Inc._logo" transform="translate(19.088235, 36.766355)" fill-rule="nonzero">
            <polygon id="polygon9" fill="#00579F" points="22.5762548 15.9829579 18.4046182 15.9829579 21.0138586 0 25.1852671 0"></polygon>
            <path d="M37.7779006,0.678661514 C36.9498849,0.356122614 35.6365836,0 34.0126903,0 C29.8671024,0 26.9478134,2.17054479 26.9299078,5.27377021 C26.8954741,7.56332307 29.0200334,8.83499635 30.6090339,9.59840603 C32.2331567,10.3784949 32.7852437,10.8876601 32.7852437,11.5830007 C32.7687155,12.6509178 31.4728606,13.1431784 30.2642378,13.1431784 C28.5882348,13.1431784 27.6902039,12.8893847 26.3254816,12.295246 L25.772706,12.0405507 L25.1852671,15.6189068 C26.1698413,16.0593268 27.9838086,16.4501601 29.8671024,16.46729 C34.2718613,16.46729 37.1394998,14.3303289 37.1734744,11.0233473 C37.1902321,9.2086997 36.0683822,7.81824375 33.6497591,6.68203229 C32.1815062,5.95265712 31.2823275,5.46084728 31.2823275,4.71456755 C31.2995443,4.03613143 32.0428531,3.34124154 33.7002619,3.34124154 C35.0649842,3.30720704 36.0676935,3.62929515 36.8273009,3.95160865 L37.2069898,4.12087959 L37.7779006,0.678661514 L37.7779006,0.678661514 L37.7779006,0.678661514 Z" id="path11" fill="#00579F"></path>
            <path d="M43.2829623,10.3209098 C43.6275504,9.40269712 44.9535053,5.84894496 44.9535053,5.84894496 C44.9361157,5.88307002 45.2974069,4.91378271 45.5040225,4.31874109 L45.7964419,5.69594717 C45.7964419,5.69594717 46.5888115,9.52179584 46.7608767,10.3209098 C46.1069373,10.3209098 44.1094246,10.3209098 43.2829623,10.3209098 L43.2829623,10.3209098 Z M48.447894,0 L45.2113743,0 C44.2133044,0 43.4550275,0.288820048 43.0244068,1.32613149 L36.8092365,15.9829579 L41.1996458,15.9829579 C41.1996458,15.9829579 41.9224571,14.0102583 42.0778192,13.58539 C42.5594646,13.58539 46.830435,13.58539 47.4500529,13.58539 C47.5701782,14.1465325 47.9493167,15.9829579 47.9493167,15.9829579 L51.8235303,15.9829579 L48.447894,0 L48.447894,0 L48.447894,0 Z" id="path13" fill="#00579F"></path>
            <path d="M14.5319446,0 L10.4966953,10.9104179 L10.0557448,8.69765745 C9.30971148,6.14442013 6.96999242,3.37038185 4.35898853,1.99105455 L8.05513177,15.9829579 L12.4123628,15.9829579 L18.8889503,0 L14.5319446,0 L14.5319446,0 L14.5319446,0 Z" id="path15" fill="#00579F"></path>
            <path d="M6.80943863,0 L0.0689580805,0 L0,0.324013348 C5.25799637,1.65475816 8.74026489,4.86246763 10.1709732,8.71797706 L8.7056713,1.34797715 C8.46443256,0.323786607 7.72307592,0.0337844569 6.80943863,0 L6.80943863,0 Z" id="path17" fill="#FAA61A"></path>
        </g>
    </g>
</svg>