<?xml version="1.0" encoding="UTF-8"?>
<svg viewBox="0 0 70 40" version="1.1" xmlns="http://www.w3.org/2000/svg" xmlns:xlink="http://www.w3.org/1999/xlink">
    <title>energy-label/energy-label-e-left</title>
    <g id="energy-label/energy-label-e-left" stroke="none" stroke-width="1" fill="none" fill-rule="evenodd">
        <path d="M50.9116946,0.5 L69.3125331,20 L50.9116946,39.5 L0.5,39.5 L0.5,0.5 L50.9116946,0.5 Z" id="Fill-1" stroke="#625D52" fill="#E2A037" transform="translate(35.000000, 20.000000) scale(-1, 1) translate(-35.000000, -20.000000) "></path>
        <rect id="Rectangle" fill="#FFFFFF" transform="translate(61.000000, 20.000000) scale(-1, 1) translate(-61.000000, -20.000000) " x="54" y="2" width="14" height="36"></rect>
        <g id="Group-2" transform="translate(57.363770, 5.463623)" fill="#464134" fill-rule="nonzero">
            <g id="A">
                <path d="M5.90820312,7.88476562 L5.12402344,5.70410156 L2.12158203,5.70410156 L1.35351562,7.88476562 L0,7.88476562 L2.93798828,0 L4.33447266,0 L7.27246094,7.88476562 L5.90820312,7.88476562 Z M4.78564453,4.59765625 L4.04980469,2.45996094 C3.99609375,2.31673177 3.92179362,2.09114583 3.8269043,1.78320312 C3.73201497,1.47526042 3.66666667,1.24967448 3.63085938,1.10644531 C3.53417969,1.546875 3.39274089,2.02848307 3.20654297,2.55126953 L2.49755859,4.59765625 L4.78564453,4.59765625 Z" id="Shape"></path>
            </g>
            <g id="G" transform="translate(0.392090, 21.000000)">
                <path d="M3.59863281,3.70605469 L6.48828125,3.70605469 L6.48828125,7.6484375 C6.015625,7.80240885 5.56176758,7.91162109 5.12670898,7.97607422 C4.69165039,8.04052734 4.22167969,8.07275391 3.71679688,8.07275391 C2.52799479,8.07275391 1.61132812,7.72094727 0.966796875,7.01733398 C0.322265625,6.3137207 0,5.32096354 0,4.0390625 C0,2.7750651 0.36344401,1.78588867 1.09033203,1.0715332 C1.81722005,0.357177734 2.81803385,0 4.09277344,0 C4.91276042,0 5.68977865,0.157552083 6.42382812,0.47265625 L5.97265625,1.54150391 C5.33528646,1.24788411 4.69791667,1.10107422 4.06054688,1.10107422 C3.22265625,1.10107422 2.56022135,1.36425781 2.07324219,1.890625 C1.58626302,2.41699219 1.34277344,3.13671875 1.34277344,4.04980469 C1.34277344,5.0094401 1.5620931,5.73901367 2.00073242,6.23852539 C2.43937174,6.73803711 3.07047526,6.98779297 3.89404297,6.98779297 C4.30940755,6.98779297 4.75341797,6.9358724 5.22607422,6.83203125 L5.22607422,4.80712891 L3.59863281,4.80712891 L3.59863281,3.70605469 Z" id="Path"></path>
            </g>
            <path d="M3.67525019,11.098134 L3.693782,11.1000073 C3.74430894,11.1056805 3.79482838,11.1194036 3.84304909,11.1413739 L3.92146154,11.1860282 L5.74061359,12.4495461 C5.96741592,12.6070748 6.02357323,12.9186368 5.86604446,13.1454391 C5.72601888,13.3470412 5.4642881,13.4138126 5.2485639,13.3155243 L5.17015144,13.27087 L4.13623047,12.5536316 L4.13623047,17.2866316 C4.13623047,17.562774 3.91237284,17.7866316 3.63623047,17.7866316 C3.39077058,17.7866316 3.1866221,17.6097564 3.14428614,17.3765072 L3.13623047,17.2866316 L3.13623047,12.5526316 L2.1023095,13.27087 C1.87550717,13.4283987 1.56394525,13.3722414 1.40641648,13.1454391 C1.2663909,12.943837 1.29520372,12.6752644 1.4626258,12.507433 L1.53184735,12.4495461 L3.35099939,11.1860282 C3.39784223,11.1534929 3.44830066,11.1300728 3.50027087,11.1153887 L3.59721074,11.098134 L3.67525019,11.098134 Z" id="Combined-Shape"></path>
        </g>
        <path d="M40.53125,8.078125 L40.53125,13.046875 L32.21875,13.046875 L32.21875,17.0625 L39.953125,17.0625 L39.953125,22.03125 L32.21875,22.03125 L32.21875,26.921875 L40.53125,26.921875 L40.53125,31.921875 L26.375,31.921875 L26.375,8.078125 L40.53125,8.078125 Z" id="Path" stroke="#625D52" fill="#FFFFFF" fill-rule="nonzero"></path>
    </g>
</svg>