<?xml version="1.0" encoding="UTF-8"?>
<svg viewBox="0 0 10 6" version="1.1" xmlns="http://www.w3.org/2000/svg" xmlns:xlink="http://www.w3.org/1999/xlink">
    <title>arrow-down</title>
    <g id="Symbols" stroke="none" stroke-width="1" fill="none" fill-rule="evenodd">
        <g id="arrow-down" transform="translate(0.000000, -4.000000)" fill="#2B271F" fill-rule="nonzero">
            <g transform="translate(5.000000, 5.000000) rotate(90.000000) translate(-5.000000, -5.000000) " id="Path-2">
                <path d="M2.05354006,1.49999967 C2.29899234,1.50194819 2.50174182,1.68042529 2.54223992,1.91400061 L2.54958768,2.00393689 L2.503,7.795 L8.29566629,7.7500155 C8.54111857,7.7480828 8.7466534,7.92334506 8.7908246,8.1562537 L8.7996035,8.24606311 C8.80152037,8.49151539 8.62625811,8.69705022 8.39334948,8.74122142 L8.30354006,8.7499845 L2.00393689,8.79960352 C1.75574694,8.80154193 1.54888634,8.62247513 1.5075255,8.38655768 L1.5000155,8.29566629 L1.54961867,1.99606311 C1.55179296,1.7199293 1.77740625,1.49784122 2.05354006,1.49999967 Z" transform="translate(5.149810, 5.149802) scale(-1, 1) rotate(45.000000) translate(-5.149810, -5.149802) "></path>
            </g>
        </g>
    </g>
</svg>