<?xml version="1.0" encoding="UTF-8"?>
<svg width="22px" height="22px" viewBox="0 0 22 22" version="1.1" xmlns="http://www.w3.org/2000/svg" xmlns:xlink="http://www.w3.org/1999/xlink">
    <title>warenkorb</title>
    <g id="Symbols" stroke="none" stroke-width="1" fill="none" fill-rule="evenodd">
        <g id="warenkorb" fill="#FFFFFF" fill-rule="nonzero">
            <path d="M10.083427,19.2501787 C10.083427,18.744174 9.87717505,18.2849198 9.54625531,17.954 C9.21533557,17.6230803 8.7560813,17.4168284 8.25007661,17.4168284 C7.74407191,17.4168284 7.28481764,17.6230803 6.9538979,17.954 C6.62297816,18.2849198 6.41672625,18.744174 6.41672625,19.2501787 C6.41672625,19.7561834 6.62297816,20.2154377 6.9538979,20.5463574 C7.28481764,20.8772772 7.74407191,21.0835291 8.25007661,21.0835291 C8.7560813,21.0835291 9.21533557,20.8772772 9.54625531,20.5463574 C9.87717505,20.2154377 10.083427,19.7561834 10.083427,19.2501787 Z M20.1668539,19.2501787 C20.1668539,18.744174 19.960602,18.2849198 19.6296823,17.954 C19.2987625,17.6230803 18.8395083,17.4168284 18.3335036,17.4168284 C17.8274989,17.4168284 17.3682446,17.6230803 17.0373249,17.954 C16.7064051,18.2849198 16.5001532,18.744174 16.5001532,19.2501787 C16.5001532,19.7561834 16.7064051,20.2154377 17.0373249,20.5463574 C17.3682446,20.8772772 17.8274989,21.0835291 18.3335036,21.0835291 C18.8395083,21.0835291 19.2987625,20.8772772 19.6296823,20.5463574 C19.960602,20.2154377 20.1668539,19.7561834 20.1668539,19.2501787 Z M6.61931146,6.41672625 L19.9752688,6.41672625 L18.7185071,13.0085375 C18.6763401,13.2175394 18.5663391,13.3981244 18.414171,13.529209 C18.2491695,13.6722103 18.0355841,13.7547111 17.7834985,13.7501277 L8.86058227,13.7501277 C8.64791363,13.7528777 8.44716177,13.6850437 8.28674361,13.5640426 C8.11257533,13.4329581 7.98515748,13.2422896 7.93932372,13.0112875 L6.61931146,6.41672625 Z M0.916675178,1.83335036 L3.83170225,1.83335036 L4.6090428,5.71913644 C4.70804372,6.11972349 5.06921374,6.41672625 5.50005107,6.41672625 L6.61931146,6.41672625 L6.25264139,4.58337589 L5.50005107,4.58337589 C4.99404637,4.58337589 4.58337589,4.99404637 4.58337589,5.50005107 C4.58337589,5.54863486 4.58704259,5.59630196 4.59437599,5.64213572 C4.5980427,5.66780263 4.60354275,5.69438621 4.60995947,5.71913644 L6.1417237,13.3706242 C6.2783083,14.0590472 6.66422855,14.6383859 7.1867334,15.0307229 C7.66432117,15.3900596 8.25924336,15.5926448 8.88624918,15.583478 L17.7834985,15.583478 C18.4691715,15.5972282 19.1172608,15.3442258 19.6122654,14.9170552 C20.065103,14.5265516 20.389606,13.9884632 20.5151905,13.3742909 L21.9837041,5.672386 C22.0781217,5.17463138 21.752702,4.69521026 21.2549474,4.59987605 C21.1953635,4.58795927 21.1357796,4.58245922 21.0835291,4.58337589 L6.25172472,4.58337589 L5.48171757,0.737006843 C5.3955501,0.313502911 5.02613,2.11386464e-13 4.58337589,2.11386464e-13 L0.916675178,2.11386464e-13 C0.41067048,2.11386464e-13 0,0.41067048 0,0.916675178 C0,1.42267988 0.41067048,1.83335036 0.916675178,1.83335036 Z"></path>
        </g>
    </g>
</svg>