<?xml version="1.0" encoding="UTF-8"?>
<svg  viewBox="0 0 22 22" version="1.1" xmlns="http://www.w3.org/2000/svg" xmlns:xlink="http://www.w3.org/1999/xlink">
    <title>filter</title>
    <g id="Symbols" stroke="none" stroke-width="1" fill="none" fill-rule="evenodd">
        <g id="filter" fill="#2B271F" fill-rule="nonzero">
            <g>
                <path d="M21,2.5 C21.5522847,2.5 22,2.94771525 22,3.5 C22,4.01283584 21.6139598,4.43550716 21.1166211,4.49327227 L21,4.5 L11,4.5 C10.4477153,4.5 10,4.05228475 10,3.5 C10,2.98716416 10.3860402,2.56449284 10.8833789,2.50672773 L11,2.5 L21,2.5 Z" id="Line"></path>
                <path d="M5,2.5 C5.55228475,2.5 6,2.94771525 6,3.5 C6,4.01283584 5.61395981,4.43550716 5.11662113,4.49327227 L5,4.5 L1,4.5 C0.44771525,4.5 0,4.05228475 0,3.5 C0,2.98716416 0.38604019,2.56449284 0.883378875,2.50672773 L1,2.5 L5,2.5 Z" id="Line"></path>
                <path d="M7.5,0 C5.56700338,0 4,1.56700338 4,3.5 C4,5.43299662 5.56700338,7 7.5,7 C9.43299662,7 11,5.43299662 11,3.5 C11,1.56700338 9.43299662,0 7.5,0 Z M7.5,2 C8.32842712,2 9,2.67157288 9,3.5 C9,4.32842712 8.32842712,5 7.5,5 C6.67157288,5 6,4.32842712 6,3.5 C6,2.67157288 6.67157288,2 7.5,2 Z" id="Oval"></path>
                <path d="M21,17.5 C21.5522847,17.5 22,17.9477153 22,18.5 C22,19.0128358 21.6139598,19.4355072 21.1166211,19.4932723 L21,19.5 L11,19.5 C10.4477153,19.5 10,19.0522847 10,18.5 C10,17.9871642 10.3860402,17.5644928 10.8833789,17.5067277 L11,17.5 L21,17.5 Z" id="Line"></path>
                <path d="M5,17.5 C5.55228475,17.5 6,17.9477153 6,18.5 C6,19.0128358 5.61395981,19.4355072 5.11662113,19.4932723 L5,19.5 L1,19.5 C0.44771525,19.5 0,19.0522847 0,18.5 C0,17.9871642 0.38604019,17.5644928 0.883378875,17.5067277 L1,17.5 L5,17.5 Z" id="Line"></path>
                <path d="M7.5,15 C5.56700338,15 4,16.5670034 4,18.5 C4,20.4329966 5.56700338,22 7.5,22 C9.43299662,22 11,20.4329966 11,18.5 C11,16.5670034 9.43299662,15 7.5,15 Z M7.5,17 C8.32842712,17 9,17.6715729 9,18.5 C9,19.3284271 8.32842712,20 7.5,20 C6.67157288,20 6,19.3284271 6,18.5 C6,17.6715729 6.67157288,17 7.5,17 Z" id="Oval"></path>
                <path d="M21,10 C21.5522847,10 22,10.4477153 22,11 C22,11.5128358 21.6139598,11.9355072 21.1166211,11.9932723 L21,12 L17,12 C16.4477153,12 16,11.5522847 16,11 C16,10.4871642 16.3860402,10.0644928 16.8833789,10.0067277 L17,10 L21,10 Z" id="Line"></path>
                <path d="M12,10 C12.5522847,10 13,10.4477153 13,11 C13,11.5128358 12.6139598,11.9355072 12.1166211,11.9932723 L12,12 L1,12 C0.44771525,12 0,11.5522847 0,11 C0,10.4871642 0.38604019,10.0644928 0.883378875,10.0067277 L1,10 L12,10 Z" id="Line"></path>
                <path d="M14.5,7.5 C12.5670034,7.5 11,9.06700338 11,11 C11,12.9329966 12.5670034,14.5 14.5,14.5 C16.4329966,14.5 18,12.9329966 18,11 C18,9.06700338 16.4329966,7.5 14.5,7.5 Z M14.5,9.5 C15.3284271,9.5 16,10.1715729 16,11 C16,11.8284271 15.3284271,12.5 14.5,12.5 C13.6715729,12.5 13,11.8284271 13,11 C13,10.1715729 13.6715729,9.5 14.5,9.5 Z" id="Oval"></path>
            </g>
        </g>
    </g>
</svg>