<?xml version="1.0" encoding="UTF-8"?>
<svg viewBox="0 0 26 26" version="1.1" xmlns="http://www.w3.org/2000/svg" xmlns:xlink="http://www.w3.org/1999/xlink">
    <title>grid</title>
    <defs>
        <filter id="filter-1">
            <feColorMatrix in="SourceGraphic" type="matrix" values="0 0 0 0 0.603922 0 0 0 0 0.592157 0 0 0 0 0.564706 0 0 0 1.000000 0"></feColorMatrix>
        </filter>
    </defs>
    <g id="Symbols" stroke="none" stroke-width="1" fill="none" fill-rule="evenodd">
        <g id="grid" filter="url(#filter-1)">
            <g>
                <path d="M1.28,0 C0.57344,0 0,0.57344 0,1.28 L0,10.24 C0,10.94656 0.57344,11.52 1.28,11.52 L10.24,11.52 C10.94656,11.52 11.52,10.94656 11.52,10.24 L11.52,1.28 C11.52,0.57344 10.94656,0 10.24,0 L1.28,0 Z M2.56,2.56 L8.96,2.56 L8.96,8.96 L2.56,8.96 L2.56,2.56 Z M15.36,0 C14.65344,0 14.08,0.57344 14.08,1.28 L14.08,10.24 C14.08,10.94656 14.65344,11.52 15.36,11.52 L24.32,11.52 C25.02656,11.52 25.6,10.94656 25.6,10.24 L25.6,1.28 C25.6,0.57344 25.02656,0 24.32,0 L15.36,0 Z M16.64,2.56 L23.04,2.56 L23.04,8.96 L16.64,8.96 L16.64,2.56 Z M15.36,14.08 C14.65344,14.08 14.08,14.65344 14.08,15.36 L14.08,24.32 C14.08,25.02656 14.65344,25.6 15.36,25.6 L24.32,25.6 C25.02656,25.6 25.6,25.02656 25.6,24.32 L25.6,15.36 C25.6,14.65344 25.02656,14.08 24.32,14.08 L15.36,14.08 Z M16.64,16.64 L23.04,16.64 L23.04,23.04 L16.64,23.04 L16.64,16.64 Z M1.28,14.08 C0.57344,14.08 0,14.65344 0,15.36 L0,24.32 C0,25.02656 0.57344,25.6 1.28,25.6 L10.24,25.6 C10.94656,25.6 11.52,25.02656 11.52,24.32 L11.52,15.36 C11.52,14.65344 10.94656,14.08 10.24,14.08 L1.28,14.08 Z M2.56,16.64 L8.96,16.64 L8.96,23.04 L2.56,23.04 L2.56,16.64 Z" id="Shape" fill="#000000" fill-rule="nonzero"></path>
            </g>
        </g>
    </g>
</svg>