<?xml version="1.0" encoding="UTF-8"?>
<svg viewBox="0 0 30 26" version="1.1" xmlns="http://www.w3.org/2000/svg" xmlns:xlink="http://www.w3.org/1999/xlink">
    <title>heart</title>
    <g id="Symbols" stroke="none" stroke-width="1" fill="none" fill-rule="evenodd">
        <g id="heart" fill="#2B271F" fill-rule="nonzero">
            <g id="Shape">
                <path d="M25.09024,4.28576 C26.21664,5.41344 26.77856,6.88544 26.77856,8.36128 C26.77856,9.83712 26.21536,11.30912 25.09024,12.43424 L14.68,22.84448 L4.26976,12.43424 C3.14464,11.30912 2.58272,9.83712 2.58272,8.36 C2.58272,6.88288 3.14464,5.41088 4.26976,4.28576 C5.39488,3.16064 6.86688,2.59872 8.344,2.59872 C9.82112,2.59872 11.29312,3.16064 12.41824,4.28576 L13.77504,5.64256 C14.27552,6.14304 15.08576,6.14304 15.58496,5.64256 L16.94432,4.2832 C18.06944,3.15808 19.54144,2.59616 21.01728,2.59743782 C22.49312,2.59872 23.96512,3.16064 25.09024,4.28576 L25.09024,4.28576 Z M26.90016,2.47584 C25.27584,0.85152 23.14464,0.03872 21.01728,0.0374384906 C18.88992,0.03616 16.75872,0.84896 15.13312,2.47328 L14.68,2.92768 L14.22816,2.47584 C12.60384,0.85152 10.47136,0.03872 8.344,0.03872 C6.21664,0.03872 4.08416,0.85152 2.45984,2.47584 C0.83552,4.10016 0.02272,6.23264 0.02272,8.36 C0.02272,10.48736 0.83552,12.61984 2.45984,14.24416 L13.77504,25.55936 C14.27552,26.05984 15.08576,26.05984 15.58496,25.55936 L26.90016,14.24416 C28.52448,12.61984 29.33728,10.48864 29.3385615,8.36128 C29.33984,6.23392 28.52704,4.10272 26.90016,2.47584 Z"></path>
            </g>
        </g>
    </g>
</svg>