<?xml version="1.0" encoding="UTF-8"?>
<svg viewBox="0 0 45 45" version="1.1" xmlns="http://www.w3.org/2000/svg" xmlns:xlink="http://www.w3.org/1999/xlink">
    <title>Instagram</title>
    <g id="Symbols" stroke="none" stroke-width="1" fill="none" fill-rule="evenodd">
        <g id="instagram">
            <circle id="Oval" fill="#FFFFFF" cx="22.4" cy="22.4" r="22.4"></circle>
            <path d="M17.7064616,11 C14.0082533,11 11,14.0110384 11,17.710205 L11,27.2935383 C11,30.9917466 14.0110384,34 17.710205,34 L27.2935383,34 C30.9917466,34 34,30.9889617 34,27.289795 L34,17.7064616 C34,14.0082533 30.9889617,11 27.289795,11 L17.7064616,11 Z M29.2083333,14.8333333 C29.7373333,14.8333333 30.1666667,15.2626667 30.1666667,15.7916667 C30.1666667,16.3206667 29.7373333,16.75 29.2083333,16.75 C28.6793333,16.75 28.25,16.3206667 28.25,15.7916667 C28.25,15.2626667 28.6793333,14.8333333 29.2083333,14.8333333 Z M22.5,16.75 C25.671125,16.75 28.25,19.328875 28.25,22.5 C28.25,25.671125 25.671125,28.25 22.5,28.25 C19.328875,28.25 16.75,25.671125 16.75,22.5 C16.75,19.328875 19.328875,16.75 22.5,16.75 Z M22.5,18.6666667 C20.3829085,18.6666667 18.6666667,20.3829085 18.6666667,22.5 C18.6666667,24.6170915 20.3829085,26.3333333 22.5,26.3333333 C24.6170915,26.3333333 26.3333333,24.6170915 26.3333333,22.5 C26.3333333,20.3829085 24.6170915,18.6666667 22.5,18.6666667 Z" id="Shape" fill="#7D7971" fill-rule="nonzero"></path>
        </g>
    </g>
</svg>