<?xml version="1.0" encoding="UTF-8"?>
    <svg viewBox="0 0 45 45" xmlns="http://www.w3.org/2000/svg">
    <title>icon/LinkedIn</title>
        <g fill="none"><circle fill="#FFF" cx="22.4" cy="22.4" r="22.4"/>
            <path d="M16.4767708,31.999487 L12.330356,31.999487 L12.330356,18.6468528 L16.4767708,18.6468528 L16.4767708,31.999487 Z M14.4013313,16.8254303 C13.0754428,16.8254303 12,15.7272197 12,14.4013313 C12,13.0751126 13.0751127,12 14.4013313,12 C15.7275499,12 16.8026626,13.0751126 16.8026626,14.4013313 C16.8026626,15.7272197 15.7267733,16.8254303 14.4013313,16.8254303 Z M31.9954692,31.999487 L27.857983,31.999487 L27.857983,25.4995086 C27.857983,23.9504066 27.8267331,21.9638061 25.7021866,21.9638061 C23.5463902,21.9638061 23.2160341,23.6468362 23.2160341,25.3879019 L23.2160341,31.999487 L19.0740836,31.999487 L19.0740836,18.6468528 L23.0508561,18.6468528 L23.0508561,20.4682754 L23.1088916,20.4682754 C23.6624612,19.4191717 25.0146888,18.3120325 27.0320928,18.3120325 C31.2285075,18.3120325 31.9999335,21.0754162 31.9999335,24.66469 L31.9999335,31.999487 L31.9954692,31.999487 Z" fill="#7D7971"/>
        </g>                    
</svg>