<?xml version="1.0" encoding="UTF-8"?>
<svg viewBox="0 0 26 18" version="1.1" xmlns="http://www.w3.org/2000/svg" xmlns:xlink="http://www.w3.org/1999/xlink">
    <title>list</title>
    <defs>
        <filter id="filter-1">
            <feColorMatrix in="SourceGraphic" type="matrix" values="0 0 0 0 0.603922 0 0 0 0 0.592157 0 0 0 0 0.564706 0 0 0 1.000000 0"></feColorMatrix>
        </filter>
    </defs>
    <g id="Symbols" stroke="none" stroke-width="1" fill="none" fill-rule="evenodd">
        <g id="list" filter="url(#filter-1)">
            <g>
                <path d="M7.68,2.56 L24.32,2.56 C25.02656,2.56 25.6,1.98656 25.6,1.28 C25.6,0.57344 25.02656,0 24.32,0 L7.68,0 C6.97344,0 6.4,0.57344 6.4,1.28 C6.4,1.98656 6.97344,2.56 7.68,2.56 Z M7.68,10.24 L24.32,10.24 C25.02656,10.24 25.6,9.66656 25.6,8.96 C25.6,8.25344 25.02656,7.68 24.32,7.68 L7.68,7.68 C6.97344,7.68 6.4,8.25344 6.4,8.96 C6.4,9.66656 6.97344,10.24 7.68,10.24 Z M7.68,17.92 L24.32,17.92 C25.02656,17.92 25.6,17.34656 25.6,16.64 C25.6,15.93344 25.02656,15.36 24.32,15.36 L7.68,15.36 C6.97344,15.36 6.4,15.93344 6.4,16.64 C6.4,17.34656 6.97344,17.92 7.68,17.92 Z M1.28,2.56 C1.98656,2.56 2.56,1.98656 2.56,1.28 C2.56,0.57344 1.98656,0 1.28,0 C0.57344,0 0,0.57344 0,1.28 C0,1.98656 0.57344,2.56 1.28,2.56 Z M1.28,10.24 C1.98656,10.24 2.56,9.66656 2.56,8.96 C2.56,8.25344 1.98656,7.68 1.28,7.68 C0.57344,7.68 0,8.25344 0,8.96 C0,9.66656 0.57344,10.24 1.28,10.24 Z M1.28,17.92 C1.98656,17.92 2.56,17.34656 2.56,16.64 C2.56,15.93344 1.98656,15.36 1.28,15.36 C0.57344,15.36 0,15.93344 0,16.64 C0,17.34656 0.57344,17.92 1.28,17.92 Z" id="Shape" fill="#000000" fill-rule="nonzero"></path>
            </g>
        </g>
    </g>
</svg>