<?xml version="1.0" encoding="UTF-8"?>
<svg viewBox="0 0 19 16" version="1.1" xmlns="http://www.w3.org/2000/svg" xmlns:xlink="http://www.w3.org/1999/xlink">
    <title>nicht-lieferbar</title>
    <defs>
        <filter id="filter-1">
            <feColorMatrix in="SourceGraphic" type="matrix" values="0 0 0 0 0.603922 0 0 0 0 0.592157 0 0 0 0 0.564706 0 0 0 1.000000 0"></feColorMatrix>
        </filter>
    </defs>
    <g id="Symbols" stroke="none" stroke-width="1" fill="none" fill-rule="evenodd">
        <g id="nicht-lieferbar" filter="url(#filter-1)">
            <g>
                <path d="M11.5199993,9.9839994 L1.53599991,9.9839994 L1.53599991,1.53599991 L11.5199993,1.53599991 L11.5199993,4.60799973 L11.5199993,9.9839994 Z M13.0559992,5.37599968 L15.0420471,5.37599968 L16.895999,7.22995157 L16.895999,9.9839994 L13.0559992,9.9839994 L13.0559992,5.37599968 Z M5.37599968,12.6719992 C5.37599968,12.9899512 5.24774369,13.2771832 5.0388477,13.4868472 C4.82995171,13.6965112 4.54195173,13.8239992 4.22399975,13.8239992 C3.90604777,13.8239992 3.61881578,13.6957432 3.4091518,13.4868472 C3.19948781,13.2779512 3.07199982,12.9899512 3.07199982,12.6719992 C3.07199982,12.3540473 3.20025581,12.0668153 3.4091518,11.8571513 C3.61804778,11.6474873 3.90604777,11.5199993 4.22399975,11.5199993 C4.54195173,11.5199993 4.82918371,11.6482553 5.0388477,11.8571513 C5.24851169,12.0660473 5.37599968,12.3540473 5.37599968,12.6719992 Z M16.895999,12.6719992 C16.895999,12.2595833 16.803071,11.8694393 16.637183,11.5199993 L17.6639989,11.5199993 C18.0879349,11.5199993 18.4319989,11.1759353 18.4319989,10.7519994 L18.4319989,6.91199959 C18.4319989,6.7153916 18.3567349,6.51878361 18.2069749,6.36902362 L15.9029751,4.06502376 C15.7639671,3.92601577 15.5719671,3.83999977 15.3599991,3.83999977 L13.0559992,3.83999977 L13.0559992,0.767999954 C13.0559992,0.344063979 12.7119352,0 12.2879993,0 L0.767999954,0 C0.344063979,0 0,0.344063979 0,0.767999954 L0,10.7519994 C0,11.1759353 0.344063979,11.5199993 0.767999954,11.5199993 L1.79481589,11.5199993 C1.6289279,11.8694393 1.53599991,12.2595833 1.53599991,12.6719992 C1.53599991,13.4138872 1.83782389,14.0874232 2.32319986,14.5727991 C2.80857583,15.0581751 3.48211179,15.3599991 4.22399975,15.3599991 C4.9658877,15.3599991 5.63942366,15.0581751 6.12479963,14.5727991 C6.61017561,14.0874232 6.91199959,13.4138872 6.91199959,12.6719992 C6.91199959,12.2595833 6.81907159,11.8694393 6.6531836,11.5199993 L11.7788153,11.5199993 C11.6129273,11.8694393 11.5199993,12.2595833 11.5199993,12.6719992 C11.5199993,13.4138872 11.8218233,14.0874232 12.3071993,14.5727991 C12.7925752,15.0581751 13.4661112,15.3599991 14.2079992,15.3599991 C14.9498871,15.3599991 15.6234231,15.0581751 16.108799,14.5727991 C16.594175,14.0874232 16.895999,13.4138872 16.895999,12.6719992 Z M15.3599991,12.6719992 C15.3599991,12.9899512 15.2317431,13.2771832 15.0228471,13.4868472 C14.8139511,13.6965112 14.5259511,13.8239992 14.2079992,13.8239992 C13.8900472,13.8239992 13.6028152,13.6957432 13.3931512,13.4868472 C13.1834872,13.2779512 13.0559992,12.9899512 13.0559992,12.6719992 C13.0559992,12.3540473 13.1842552,12.0668153 13.3931512,11.8571513 C13.6020472,11.6474873 13.8900472,11.5199993 14.2079992,11.5199993 C14.5259511,11.5199993 14.8131831,11.6482553 15.0228471,11.8571513 C15.2325111,12.0660473 15.3599991,12.3540473 15.3599991,12.6719992 Z" id="Shape" fill="#000000" fill-rule="nonzero"></path>
            </g>
        </g>
    </g>
</svg>