<?xml version="1.0" encoding="UTF-8"?>
<svg viewBox="0 0 18 18" version="1.1" xmlns="http://www.w3.org/2000/svg" xmlns:xlink="http://www.w3.org/1999/xlink">
    <title>phone-call</title>
    <defs>
        <filter id="filter-1">
            <feColorMatrix in="SourceGraphic" type="matrix" values="0 0 0 0 0.168627 0 0 0 0 0.152941 0 0 0 0 0.121569 0 0 0 1.000000 0"></feColorMatrix>
        </filter>
    </defs>
    <g id="Symbols" stroke="none" stroke-width="1" fill="none" fill-rule="evenodd">
        <g id="phone-call">
            <g>
                <path d="M10.772764,4.68730816 C11.511768,4.83150408 12.1363558,5.22255714 12.5830497,5.7640755 C12.9121925,6.16374897 13.1449435,6.64492448 13.2507395,7.16920203 C13.3361599,7.59316938 13.7499395,7.8674551 14.1739068,7.78203469 C14.5978742,7.69661428 14.8721599,7.28283469 14.7867395,6.85886734 C14.6300048,6.08146326 14.2844048,5.36440203 13.7922578,4.76724285 C13.1230007,3.95535714 12.1802415,3.36525101 11.0729109,3.14974081 C10.6481599,3.06667142 10.2367313,3.34409183 10.1536619,3.76884285 C10.0705925,4.19359387 10.3480129,4.60502244 10.772764,4.68809183 L10.772764,4.68730816 Z M10.8362415,1.56280203 C12.4035884,1.73677754 13.7695313,2.47343061 14.7585272,3.55646734 C15.6346742,4.51568367 16.2145925,5.74605101 16.3744619,7.09788775 C16.4254007,7.52734081 16.8148864,7.83532448 17.2443395,7.78438571 C17.6737925,7.73344693 17.9817762,7.34396122 17.9308374,6.91450816 C17.732568,5.23196122 17.0092374,3.69674489 15.9160129,2.49929183 C14.6793762,1.14510408 12.9678333,0.221936728 11.0094333,0.00485917713 C10.5791966,-0.0429449045 10.1920619,0.267389789 10.1442578,0.696842851 C10.0964538,1.12629591 10.4067884,1.51421428 10.8362415,1.56201836 L10.8362415,1.56280203 Z M17.1526497,13.2599122 C17.1651884,12.7003694 16.9677027,12.1596347 16.6252374,11.7372347 C16.2647476,11.2936755 15.7404701,10.9794224 15.116666,10.8908673 C14.4897272,10.8140673 13.7883395,10.6447939 13.0900864,10.3846143 C12.7507558,10.2600102 12.390266,10.2137735 12.0368293,10.2482551 C11.5172538,10.2984102 11.012568,10.5217571 10.6113272,10.9182959 L10.0470823,11.4825408 C8.65998028,10.6071775 7.41393947,9.39248367 6.45550681,7.88626326 L7.02445375,7.31731632 C7.27679661,7.05870408 7.46566192,6.74836938 7.5785109,6.41138979 C7.74464967,5.91610816 7.74621702,5.36440203 7.54794763,4.83542244 C7.321466,4.24531632 7.14200477,3.54706326 7.04326192,2.80178979 C6.96175988,2.24146326 6.68669049,1.74618163 6.28858437,1.38725918 C5.86618437,1.00717754 5.30429049,0.777561218 4.70007824,0.783705433 L2.35219253,0.783705433 C2.28322926,0.783705433 2.20956396,0.7869653 2.13824967,0.793234687 C1.49250273,0.852010198 0.929825182,1.16783061 0.545041508,1.62863061 C0.160257835,2.08943061 -0.0489829814,2.69991224 0.0097925288,3.35192856 C0.24489457,5.76250816 1.07950681,8.24440203 2.53008641,10.4849245 C3.70716396,12.3759286 5.38892722,14.1078469 7.46566192,15.4267694 C9.47813539,16.7566633 11.9200619,17.6696429 14.5861191,17.9588184 C14.658217,17.9658714 14.7358007,17.9690061 14.811817,17.9690061 C15.4606987,17.9666551 16.0484538,17.7002061 16.4716374,17.2738877 C16.8948211,16.8475694 17.1557844,16.2574633 17.1534491,15.6117163 L17.1526497,13.2599122 Z M15.585308,13.2599122 L15.585308,15.6109326 C15.5860864,15.8303612 15.4998823,16.0262796 15.3580374,16.1689082 C15.2161925,16.3115367 15.0218415,16.4000918 14.804764,16.4008755 L14.7358007,16.3977408 C12.3377599,16.1367775 10.1332864,15.310002 8.33005375,14.1180347 C6.42729457,12.9088265 4.9140211,11.345398 3.86154763,9.65579795 C2.53165375,7.60257346 1.78089457,5.36048367 1.57008641,3.19989591 C1.55127824,2.98987142 1.62024151,2.78768367 1.74954763,2.63251632 C1.87885375,2.47734897 2.06536804,2.37390408 2.28087824,2.35431224 L4.70007824,2.35112455 C4.91245375,2.34882652 5.09740069,2.42484285 5.23846192,2.55179795 C5.37168641,2.67248367 5.46415988,2.83862244 5.49158845,3.02827142 C5.60287008,3.86836938 5.81132722,4.68730816 6.08482926,5.39888367 C6.14830681,5.56815714 6.14752314,5.74918571 6.092666,5.91454081 C6.054266,6.02817346 5.99000477,6.13475305 5.90301702,6.22409183 L4.9140211,7.21230408 C4.6601109,7.46621428 4.61700886,7.85021428 4.787066,8.15349591 C6.02840477,10.3360265 7.79558845,12.0381653 9.78768641,13.1517653 C10.0988048,13.3257408 10.4788864,13.2646143 10.7241762,13.0216755 L11.7194415,12.0264102 C11.8495313,11.8978877 12.0148864,11.8250061 12.1880782,11.8077653 C12.3071966,11.7960102 12.431017,11.8116837 12.5477844,11.8547857 C13.3486987,12.1533653 14.1699884,12.353202 14.9254497,12.4456755 C15.114315,12.4723204 15.2875068,12.5757653 15.4074089,12.7238796 C15.5226089,12.8657245 15.5884374,13.0467531 15.5845191,13.2583449 L15.585308,13.2599122 Z" id="Shape" fill="#FFFFFF" fill-rule="nonzero"></path>
            </g>
        </g>
    </g>
</svg>