<?xml version="1.0" encoding="UTF-8"?>
<svg viewBox="0 0 45 45" xmlns="http://www.w3.org/2000/svg" xmlns:xlink="http://www.w3.org/1999/xlink">
    <title>Pinterest</title>
    <g id="Symbols" stroke="none" stroke-width="1" fill="none" fill-rule="evenodd">
        <g id="pinterest">
            <circle fill="#FFF" fill-rule="nonzero" cx="22.4" cy="22.4" r="22.4"/>
            <path d="M34,22.5 C34,28.852823 28.85282,34 22.5,34 C21.3129,34 20.17218,33.819153 19.09637,33.485282 C19.56472,32.720161 20.26492,31.468145 20.5246,30.471169 C20.66371,29.933266 21.23871,27.735282 21.23871,27.735282 C21.61431,28.449395 22.70867,29.056855 23.87258,29.056855 C27.34113,29.056855 29.84052,25.866532 29.84052,21.901815 C29.84052,18.104032 26.73831,15.261492 22.7504,15.261492 C17.78871,15.261492 15.1502,18.590927 15.1502,22.221774 C15.1502,23.909677 16.0498,26.010282 17.48266,26.678024 C17.7006,26.78004 17.81653,26.733669 17.86754,26.525 C17.90464,26.367339 18.0994,25.583669 18.1875,25.221976 C18.21532,25.106048 18.20141,25.004032 18.10867,24.892742 C17.64032,24.313105 17.26008,23.255847 17.26008,22.268145 C17.26008,19.731653 19.17984,17.278629 22.45363,17.278629 C25.27762,17.278629 27.25766,19.203024 27.25766,21.95746 C27.25766,25.068952 25.68569,27.225202 23.64073,27.225202 C22.51391,27.225202 21.66532,26.293145 21.93891,25.147782 C22.26351,23.779839 22.88952,22.305242 22.88952,21.31754 C22.88952,20.436492 22.41653,19.699194 21.43347,19.699194 C20.27883,19.699194 19.35141,20.890927 19.35141,22.490726 C19.35141,23.510887 19.69456,24.197177 19.69456,24.197177 C19.69456,24.197177 18.55847,29.010484 18.3498,29.910081 C18.11794,30.902419 18.21069,32.302823 18.30806,33.211694 C14.03266,31.537702 11,27.373589 11,22.5 C11,16.147177 16.14718,11 22.5,11 C28.85282,11 34,16.147177 34,22.5 Z" fill="#7D7971"/>
        </g>
    </g>
</svg>

