<?xml version="1.0" encoding="UTF-8"?>
<svg viewBox="0 0 18 18" version="1.1" xmlns="http://www.w3.org/2000/svg" xmlns:xlink="http://www.w3.org/1999/xlink">
    <title>search</title>
    <g id="Symbols" stroke="none" stroke-width="1" fill="none" fill-rule="evenodd">
        <g id="search" fill="#D6A444" fill-rule="nonzero">
            <g id="Shape">
                <path d="M12.5248216,12.3597983 C12.494493,12.3829908 12.4650564,12.4088593 12.4365119,12.4374039 C12.4079673,12.4659484 12.3829908,12.494493 12.3589063,12.5257136 C11.2367479,13.6077312 9.71050553,14.2722844 8.02816,14.2722844 C6.30388964,14.2722844 4.74375054,13.5747265 3.612672,12.443648 C2.48159346,11.3125695 1.78403556,9.75243036 1.78403556,8.02816 C1.78403556,6.30388964 2.48159346,4.74375054 3.612672,3.612672 C4.74375054,2.48159346 6.30388964,1.78403556 8.02816,1.78403556 C9.75243036,1.78403556 11.3125695,2.48159346 12.443648,3.612672 C13.5747265,4.74375054 14.2722844,6.30388964 14.2722844,8.02816 C14.2722844,9.71050553 13.6077312,11.2367479 12.5248216,12.3597983 L12.5248216,12.3597983 Z M17.5789943,16.3176812 L14.300829,13.0395159 C15.3989029,11.6658085 16.05632,9.92369778 16.05632,8.02816 C16.05632,5.81149582 15.1571661,3.8035638 13.7049611,2.35135886 C12.2527562,0.89915392 10.2448242,0 8.02816,0 C5.81149582,0 3.8035638,0.89915392 2.35135886,2.35135886 C0.89915392,3.8035638 0,5.81149582 0,8.02816 C0,10.2448242 0.89915392,12.2527562 2.35135886,13.7049611 C3.8035638,15.1571661 5.81149582,16.05632 8.02816,16.05632 C9.92369778,16.05632 11.6658085,15.3989029 13.0395159,14.300829 L16.3176812,17.5789943 C16.6664602,17.9277733 17.2311074,17.9277733 17.5789943,17.5789943 C17.9268813,17.2302154 17.9277733,16.6655681 17.5789943,16.3176812 L17.5789943,16.3176812 Z"></path>
            </g>
        </g>
    </g>
</svg>