<?xml version="1.0" encoding="UTF-8"?>
<svg viewBox="0 0 32 32" version="1.1" xmlns="http://www.w3.org/2000/svg" xmlns:xlink="http://www.w3.org/1999/xlink">
    <title>shopping-active</title>
    <g id="Symbols" stroke="none" stroke-width="1" fill="none" fill-rule="evenodd">
        <g id="shopping-active">
            <circle id="Oval" fill="#FAF5EC" cx="16" cy="16" r="16"></circle>
            <g id="shopping-cart" transform="translate(7.040000, 7.680000)" fill="#D6A444" fill-rule="nonzero">
                <path d="M7.62673748,14.5601352 C7.62673748,14.1774116 7.47073604,13.8300484 7.22044038,13.5797528 C6.97014472,13.3294571 6.6227815,13.1734557 6.24005794,13.1734557 C5.85733439,13.1734557 5.50997116,13.3294571 5.25967551,13.5797528 C5.00937985,13.8300484 4.8533784,14.1774116 4.8533784,14.5601352 C4.8533784,14.9428588 5.00937985,15.290222 5.25967551,15.5405176 C5.50997116,15.7908133 5.85733439,15.9468147 6.24005794,15.9468147 C6.6227815,15.9468147 6.97014472,15.7908133 7.22044038,15.5405176 C7.47073604,15.290222 7.62673748,14.9428588 7.62673748,14.5601352 Z M15.253475,14.5601352 C15.253475,14.1774116 15.0974735,13.8300484 14.8471779,13.5797528 C14.5968822,13.3294571 14.249519,13.1734557 13.8667954,13.1734557 C13.4840719,13.1734557 13.1367086,13.3294571 12.886413,13.5797528 C12.6361173,13.8300484 12.4801159,14.1774116 12.4801159,14.5601352 C12.4801159,14.9428588 12.6361173,15.290222 12.886413,15.5405176 C13.1367086,15.7908133 13.4840719,15.9468147 13.8667954,15.9468147 C14.249519,15.9468147 14.5968822,15.7908133 14.8471779,15.5405176 C15.0974735,15.290222 15.253475,14.9428588 15.253475,14.5601352 Z M5.00660649,4.8533784 L15.108567,4.8533784 L14.1579981,9.8391847 C14.1261045,9.99726616 14.0429037,10.1338541 13.9278093,10.2330017 C13.8030082,10.3411627 13.64146,10.4035633 13.4507916,10.4000966 L6.70182223,10.4000966 C6.5409674,10.4021766 6.38912599,10.3508694 6.26779153,10.2593486 C6.13605698,10.160201 6.03968275,10.0159863 6.00501576,9.84126471 L5.00660649,4.8533784 Z M0.693339771,1.38667954 L2.89816024,1.38667954 L3.48611237,4.32574683 C3.56099307,4.62873631 3.83416894,4.8533784 4.16003863,4.8533784 L5.00660649,4.8533784 L4.72927058,3.46669886 L4.16003863,3.46669886 C3.77731507,3.46669886 3.46669886,3.77731507 3.46669886,4.16003863 C3.46669886,4.19678564 3.46947222,4.2328393 3.47501893,4.26750629 C3.47779229,4.28691981 3.48195233,4.30702666 3.48680571,4.32574683 L4.64537647,10.1130539 C4.74868409,10.6337521 5.04058014,11.0719428 5.43578381,11.3686922 C5.79701383,11.6404814 6.24699134,11.7937095 6.72123574,11.7867761 L13.4507916,11.7867761 C13.9694097,11.7971762 14.4596009,11.6058144 14.8340044,11.2827181 C15.1765143,10.9873554 15.4219565,10.5803649 15.5169441,10.1158273 L16.6276744,4.29038651 C16.6990884,3.91390301 16.4529528,3.55128631 16.0764693,3.47917897 C16.0314022,3.47016556 15.9863351,3.46600552 15.9468147,3.46669886 L4.72857724,3.46669886 L4.14617183,0.557445176 C4.08099789,0.237122202 3.80158197,0 3.46669886,0 L0.693339771,0 C0.310616218,0 0,0.310616218 0,0.693339771 C0,1.07606333 0.310616218,1.38667954 0.693339771,1.38667954 Z" id="Shape"></path>
            </g>
        </g>
    </g>
</svg>