<?xml version="1.0" encoding="UTF-8"?>
<svg viewBox="0 0 32 32" version="1.1" xmlns="http://www.w3.org/2000/svg" xmlns:xlink="http://www.w3.org/1999/xlink">
    <title>user-active</title>
    <g id="Symbols" stroke="none" stroke-width="1" fill="none" fill-rule="evenodd">
        <g id="user-active">
            <circle id="Oval" fill="#FAF5EC" cx="16" cy="16" r="16"></circle>
            <g id="user" transform="translate(8.000000, 7.000000)" fill="#D6A444" fill-rule="nonzero">
                <path d="M16.128,17.024 L16.128,15.232 C16.128,13.99552 15.625344,12.873728 14.816256,12.063744 C14.007168,11.25376 12.88448,10.752 11.648,10.752 L4.48,10.752 C3.24352,10.752 2.121728,11.254656 1.311744,12.063744 C0.50176,12.872832 0,13.99552 0,15.232 L0,17.024 C0,17.518592 0.401408,17.92 0.896,17.92 C1.390592,17.92 1.792,17.518592 1.792,17.024 L1.792,15.232 C1.792,14.489216 2.09216,13.819008 2.579584,13.331584 C3.067008,12.84416 3.737216,12.544 4.48,12.544 L11.648,12.544 C12.390784,12.544 13.060992,12.84416 13.548416,13.331584 C14.03584,13.819008 14.336,14.489216 14.336,15.232 L14.336,17.024 C14.336,17.518592 14.737408,17.92 15.232,17.92 C15.726592,17.92 16.128,17.518592 16.128,17.024 Z M12.544,4.48 C12.544,3.24352 12.041344,2.121728 11.232256,1.311744 C10.423168,0.50176 9.30048,0 8.064,0 C6.82752,0 5.705728,0.502656 4.895744,1.311744 C4.08576,2.120832 3.584,3.24352 3.584,4.48 C3.584,5.71648 4.086656,6.838272 4.895744,7.648256 C5.704832,8.45824 6.82752,8.96 8.064,8.96 C9.30048,8.96 10.422272,8.457344 11.232256,7.648256 C12.04224,6.839168 12.544,5.71648 12.544,4.48 Z M10.752,4.48 C10.752,5.222784 10.45184,5.892992 9.964416,6.380416 C9.476992,6.86784 8.806784,7.168 8.064,7.168 C7.321216,7.168 6.651008,6.86784 6.163584,6.380416 C5.67616,5.892992 5.376,5.222784 5.376,4.48 C5.376,3.737216 5.67616,3.067008 6.163584,2.579584 C6.651008,2.09216 7.321216,1.792 8.064,1.792 C8.806784,1.792 9.476992,2.09216 9.964416,2.579584 C10.45184,3.067008 10.752,3.737216 10.752,4.48 Z" id="Shape"></path>
            </g>
        </g>
    </g>
</svg>