<?xml version="1.0" encoding="UTF-8"?>
<svg width="30px" height="20px" viewBox="0 0 30 20" version="1.1" xmlns="http://www.w3.org/2000/svg" xmlns:xlink="http://www.w3.org/1999/xlink">
    <title>washing-symbol-01</title>
    <g id="Symbols" stroke="none" stroke-width="1" fill="none" fill-rule="evenodd">
        <g id="washing-symbol-01" fill="#0A0B09" transform="translate(0.000000, 0.000000)">
            <path d="M21.154918,7.93819672 C20.9581967,7.93819672 20.7983607,8.12336066 20.7983607,8.35131148 C20.7983607,8.57901639 20.9581967,8.76442623 21.154918,8.76442623 C21.3491803,8.76442623 21.5090164,8.57901639 21.5090164,8.35131148 C21.5090164,8.12336066 21.3491803,7.93819672 21.154918,7.93819672 Z M21.154918,9.66836066 C20.4590164,9.66836066 19.8934426,9.07745902 19.8934426,8.35131148 C19.8934426,7.62491803 20.4590164,7.03401639 21.154918,7.03401639 C21.8483607,7.03401639 22.4139344,7.62491803 22.4139344,8.35131148 C22.4139344,9.07745902 21.8483607,9.66836066 21.154918,9.66836066 L21.154918,9.66836066 Z" id="Fill-202"></path>
            <polyline id="Fill-203" points="26.6655738 19.672623 3.17213115 19.672623 2.79557798e-14 0.24295082 1.48770492 5.59115595e-14 4.45327869 18.1657377 25.3844262 18.1657377 28.35 5.59115595e-14 29.8377049 0.24295082 26.6655738 19.672623"></polyline>
            <path d="M12.9270492,10.1936066 C13.1581967,10.594918 13.2836066,11.185082 13.3008197,11.9483607 C12.897541,12.3929508 12.4844262,12.6181967 12.0762295,12.6181967 C11.7442623,12.6181967 11.4885246,12.4878689 11.2893443,12.2195902 C11.0852459,11.9409836 10.9819672,11.5738525 10.9819672,11.1285246 C10.9819672,10.6886066 11.0827869,10.3180328 11.2868852,10.0271311 C11.4786885,9.7495082 11.7295082,9.6145082 12.0491803,9.6145082 C12.4155738,9.6145082 12.7008197,9.80409836 12.9270492,10.1936066 Z M12.0295082,8.59278689 C11.3557377,8.59278689 10.804918,8.85172131 10.3967213,9.36221311 C9.99590164,9.86286885 9.7942623,10.4768852 9.7942623,11.1870492 C9.7942623,11.890082 10.0008197,12.4795082 10.4065574,12.9390984 C10.8172131,13.4040984 11.3286885,13.6396721 11.9262295,13.6396721 C12.4155738,13.6396721 12.8631148,13.4628689 13.2614754,13.1129508 C13.195082,13.7594262 13.0598361,14.2706557 12.8606557,14.6363115 C12.6368852,15.0504098 12.3565574,15.2515574 12.002459,15.2515574 C11.4442623,15.2515574 11.1540984,14.9586885 11.0901639,14.3304098 L11.0754098,14.1951639 L9.88770492,14.1951639 L9.90737705,14.3643443 C9.98606557,14.9869672 10.2147541,15.4662295 10.5885246,15.7888525 C10.9622951,16.11 11.4196721,16.2727869 11.9532787,16.2727869 C13.6180328,16.2727869 14.4614754,14.9038525 14.4614754,12.2040984 C14.4614754,11.0591803 14.252459,10.1663115 13.8368852,9.55008197 C13.4090164,8.91491803 12.8016393,8.59278689 12.0295082,8.59278689 L12.0295082,8.59278689 Z" id="Fill-204"></path>
            <path d="M17.4639344,11.1140164 C17.0631148,11.1140164 16.7065574,11.2045082 16.4016393,11.3835246 L16.5147541,9.86262295 L19.3647541,9.86262295 L19.3647541,8.7145082 L15.5016393,8.7145082 L15.1991803,12.7831967 L16.1040984,12.7831967 L16.1483607,12.7295902 C16.4508197,12.3693443 16.8098361,12.1942623 17.242623,12.1942623 C17.6163934,12.1942623 17.9114754,12.3196721 18.142623,12.577623 C18.3762295,12.8365574 18.4942623,13.2002459 18.4942623,13.6593443 C18.4942623,14.1164754 18.3762295,14.5035246 18.142623,14.8089344 C17.9139344,15.1067213 17.6262295,15.2515574 17.2598361,15.2515574 C16.9721311,15.2515574 16.7336066,15.1613115 16.5270492,14.9759016 C16.3254098,14.7934426 16.2,14.5020492 16.1557377,14.110082 L16.1409836,13.9760656 L14.9532787,13.9760656 L14.9704918,14.1410656 C15.0368852,14.8411475 15.2901639,15.3779508 15.7180328,15.7369672 C16.1434426,16.092541 16.6622951,16.2727869 17.2598361,16.2727869 C17.9901639,16.2727869 18.5852459,16.0118852 19.0254098,15.4977049 C19.4606557,14.989918 19.6819672,14.3436885 19.6819672,13.5767213 C19.6819672,12.8382787 19.4606557,12.2372951 19.0229508,11.7895082 C18.5827869,11.3414754 18.0590164,11.1140164 17.4639344,11.1140164 Z" id="Fill-205"></path>
            <path d="M26.842623,4.40385246 C26.257377,3.87983607 25.5295082,3.22795082 24.157377,3.22795082 C22.7901639,3.22795082 22.0918033,3.84983607 21.4622951,4.40877049 C20.9090164,4.9045082 20.4737705,5.29598361 19.5368852,5.29598361 C18.602459,5.29598361 18.1647541,4.90721311 17.5991803,4.40385246 C17.0139344,3.87983607 16.2860656,3.22795082 14.9139344,3.22795082 C13.5418033,3.22795082 12.8139344,3.87983607 12.2163934,4.41516393 C11.6606557,4.90721311 11.2254098,5.29598361 10.2909836,5.29598361 C9.36393443,5.29598361 8.92622951,4.90721311 8.36065574,4.40385246 C7.77540984,3.87983607 7.04754098,3.22795082 5.67540984,3.22795082 C4.30327869,3.22795082 3.57540984,3.87983607 2.99016393,4.40311475 L2.96311475,4.42721311 C2.53770492,4.80344262 2.16885246,5.12852459 1.57622951,5.24729508 L1.43360656,5.27581967 L1.61803279,6.39418033 L1.76803279,6.36491803 C2.68770492,6.18762295 3.24344262,5.69114754 3.74262295,5.24336066 C4.29590164,4.74786885 4.73114754,4.35663934 5.67540984,4.35663934 C6.61721311,4.35663934 7.05491803,4.74786885 7.61065574,5.24680328 C8.22540984,5.79885246 8.92377049,6.42442623 10.2909836,6.42442623 C11.6655738,6.42442623 12.3639344,5.79688525 12.9836066,5.24336066 C13.5344262,4.74786885 13.9696721,4.35663934 14.9139344,4.35663934 C15.8532787,4.35663934 16.2909836,4.74688525 16.8491803,5.24311475 C17.4319672,5.76934426 18.157377,6.42442623 19.5368852,6.42442623 C20.9163934,6.42442623 21.6393443,5.76934426 22.2245902,5.24163934 C22.7803279,4.74713115 23.2180328,4.35663934 24.157377,4.35663934 C25.0967213,4.35663934 25.5368852,4.74688525 26.095082,5.24311475 C26.557377,5.66262295 27.1377049,6.18516393 28.0696721,6.36491803 L28.2221311,6.39418033 L28.4040984,5.27581967 L28.2614754,5.24729508 C27.6491803,5.12434426 27.2754098,4.79065574 26.842623,4.40385246" id="Fill-206"></path>
        </g>
    </g>
</svg>