<?xml version="1.0" encoding="UTF-8"?>
<svg width="30px" height="21px" viewBox="0 0 30 21" version="1.1" xmlns="http://www.w3.org/2000/svg" xmlns:xlink="http://www.w3.org/1999/xlink">
    <title>washing-symbol-04</title>
    <g id="Symbols" stroke="none" stroke-width="1" fill="none" fill-rule="evenodd">
        <g id="washing-symbol-04" fill="#0A0B09" transform="translate(0.000000, -0.000000)">
            <path d="M2.00223214,18.2089286 L27.8758929,18.2089286 L26.0740179,11.2178571 C22.936875,11.0598214 10.7338393,10.5589286 6.86919643,12.0589286 C3.77839286,13.25625 2.47285714,16.5642857 2.00223214,18.2089286 Z M29.9935714,19.8508929 L-1.67485073e-13,19.8508929 L0.154285714,18.8973214 C0.196339286,18.6375 1.24901786,12.4767857 6.27535714,10.5267857 C10.2932143,8.96785714 21.77625,9.36696429 25.6449107,9.55178571 L23.6057143,1.64196429 L6.97125,1.64196429 L6.97125,7.61295788e-14 L24.8775,7.61295788e-14 L29.9935714,19.8508929 L29.9935714,19.8508929 Z" id="Fill-22"></path>
            <path d="M16.4276786,14.4294643 C16.4276786,15.2464286 15.7658036,15.9080357 14.949375,15.9080357 C14.1329464,15.9080357 13.4710714,15.2464286 13.4710714,14.4294643 C13.4710714,13.6125 14.1329464,12.9508929 14.949375,12.9508929 C15.7658036,12.9508929 16.4276786,13.6125 16.4276786,14.4294643" id="Fill-23"></path>
            <path d="M11.3592857,14.4294643 C11.3592857,15.2464286 10.6974107,15.9080357 9.88098214,15.9080357 C9.06455357,15.9080357 8.40267857,15.2464286 8.40267857,14.4294643 C8.40267857,13.6125 9.06455357,12.9508929 9.88098214,12.9508929 C10.6974107,12.9508929 11.3592857,13.6125 11.3592857,14.4294643" id="Fill-24"></path>
            <path d="M21.4963393,14.4294643 C21.4963393,15.2464286 20.8344643,15.9080357 20.0180357,15.9080357 C19.2016071,15.9080357 18.5397321,15.2464286 18.5397321,14.4294643 C18.5397321,13.6125 19.2016071,12.9508929 20.0180357,12.9508929 C20.8344643,12.9508929 21.4963393,13.6125 21.4963393,14.4294643" id="Fill-25"></path>
        </g>
    </g>
</svg>