<?xml version="1.0" encoding="UTF-8"?>
<svg width="25px" height="25px" viewBox="0 0 25 25" version="1.1" xmlns="http://www.w3.org/2000/svg" xmlns:xlink="http://www.w3.org/1999/xlink">
    <title>washing-symbol-05</title>
    <g id="Symbols" stroke="none" stroke-width="1" fill="none" fill-rule="evenodd">
        <g id="washing-symbol-05" fill="#0A0B09">
            <polyline id="Fill-108" points="24.1378319 24.9734513 8.80318434e-14 0.83539823 0.83539823 1.13183799e-13 24.9732301 24.1380531 24.1378319 24.9734513"></polyline>
            <polyline id="Fill-109" points="0.83539823 24.9734513 8.80318434e-14 24.1380531 24.1378319 1.13183799e-13 24.9732301 0.83539823 0.83539823 24.9734513"></polyline>
            <path d="M12.7190265,2.82654867 C7.32168142,2.82654867 2.93075221,7.21769912 2.93075221,12.6146018 C2.93075221,18.0119469 7.32168142,22.4028761 12.7190265,22.4028761 C18.1159292,22.4028761 22.5070796,18.0119469 22.5070796,12.6146018 C22.5070796,7.21769912 18.1159292,2.82654867 12.7190265,2.82654867 Z M12.7190265,23.7586283 C6.57411504,23.7586283 1.57522124,18.7595133 1.57522124,12.6146018 C1.57522124,6.47013274 6.57411504,1.4710177 12.7190265,1.4710177 C18.8634956,1.4710177 23.8626106,6.47013274 23.8626106,12.6146018 C23.8626106,18.7595133 18.8634956,23.7586283 12.7190265,23.7586283 L12.7190265,23.7586283 Z" id="Fill-110"></path>
        </g>
    </g>
</svg>