<?xml version="1.0" encoding="UTF-8"?>
<svg width="25px" height="25px" viewBox="0 0 25 25" version="1.1" xmlns="http://www.w3.org/2000/svg" xmlns:xlink="http://www.w3.org/1999/xlink">
    <title>washing-symbol-03</title>
    <g id="Symbols" stroke="none" stroke-width="1" fill="none" fill-rule="evenodd">
        <g id="washing-symbol-03" fill="#0A0B09">
            <path d="M1.48713592,23.4745146 L23.4745146,23.4745146 L23.4745146,1.48737864 L1.48713592,1.48737864 L1.48713592,23.4745146 Z M6.5535495e-14,24.9616505 L24.9616505,24.9616505 L24.9616505,5.51877853e-14 L6.5535495e-14,5.51877853e-14 L6.5535495e-14,24.9616505 Z" id="Fill-54"></path>
            <path d="M12.4805825,1.74247573 C6.55970874,1.74247573 1.74247573,6.55970874 1.74247573,12.4808252 C1.74247573,18.4019417 6.55970874,23.2194175 12.4805825,23.2194175 C18.4019417,23.2194175 23.2194175,18.4019417 23.2194175,12.4808252 C23.2194175,6.55970874 18.4019417,1.74247573 12.4805825,1.74247573 Z M12.4805825,24.7065534 C5.73956311,24.7065534 0.255339806,19.2220874 0.255339806,12.4808252 C0.255339806,5.73956311 5.73956311,0.255339806 12.4805825,0.255339806 C19.2220874,0.255339806 24.7065534,5.73956311 24.7065534,12.4808252 C24.7065534,19.2220874 19.2220874,24.7065534 12.4805825,24.7065534 L12.4805825,24.7065534 Z" id="Fill-55"></path>
            <path d="M13.8203883,12.4808252 C13.8203883,13.2206311 13.2206311,13.8203883 12.4808252,13.8203883 C11.7410194,13.8203883 11.1412621,13.2206311 11.1412621,12.4808252 C11.1412621,11.7410194 11.7410194,11.1412621 12.4808252,11.1412621 C13.2206311,11.1412621 13.8203883,11.7410194 13.8203883,12.4808252" id="Fill-56"></path>
        </g>
    </g>
</svg>