<?xml version="1.0" encoding="UTF-8"?>
<svg viewBox="0 0 45 45" xmlns="http://www.w3.org/2000/svg">
    <title>Whatsapp</title>
    <g fill="none"><circle fill="#FFF" cx="22.4" cy="22.4" r="22.4"/>
        <path d="M30.5551339,14.3421875 C28.4040179,12.1859375 25.5392857,11 22.4948661,11 C16.2109375,11 11.0975446,16.1133929 11.0975446,22.3973214 C11.0975446,24.4046875 11.6212054,26.3658482 12.6171875,28.0959821 L11,34 L17.0426339,32.4136161 C18.7060268,33.3223214 20.5799107,33.7997768 22.4897321,33.7997768 L22.4948661,33.7997768 C28.7736607,33.7997768 34,28.6863839 34,22.4024554 C34,19.3580357 32.70625,16.4984375 30.5551339,14.3421875 Z M22.4948661,31.8796875 C20.7904018,31.8796875 19.121875,31.4227679 17.6689732,30.5602679 L17.325,30.3549107 L13.7415179,31.2944196 L14.6964286,27.7982143 L14.4705357,27.4388393 C13.5207589,25.9294643 13.0227679,24.1890625 13.0227679,22.3973214 C13.0227679,17.1761161 17.2736607,12.9252232 22.5,12.9252232 C25.0310268,12.9252232 27.4080357,13.9109375 29.1946429,15.7026786 C30.98125,17.4944196 32.0799107,19.8714286 32.0748125,22.4024554 C32.0748125,27.6287946 27.7160714,31.8796875 22.4948661,31.8796875 Z M27.6904018,24.7845982 C27.4080357,24.6408482 26.0064732,23.9529018 25.7446429,23.8604911 C25.4828125,23.7629464 25.2928571,23.7167411 25.1029018,24.0042411 C24.9129464,24.2917411 24.36875,24.9283482 24.1993304,25.1234375 C24.0350446,25.3133929 23.865625,25.3390625 23.5832589,25.1953125 C21.9095982,24.3584821 20.8109375,23.7013393 19.7071429,21.8069196 C19.4145089,21.3037946 19.9997768,21.3397321 20.5439732,20.2513393 C20.6363839,20.0613839 20.5901786,19.8970982 20.5183036,19.7533482 C20.4464286,19.6095982 19.8765625,18.2080357 19.6404018,17.6381696 C19.409375,17.0837054 19.1732143,17.1607143 18.9986607,17.1504464 C18.834375,17.1401786 18.6444196,17.1401786 18.4544643,17.1401786 C18.2645089,17.1401786 17.9564732,17.2120536 17.6946429,17.4944196 C17.4328125,17.7819196 16.6986607,18.4698661 16.6986607,19.8714286 C16.6986607,21.2729911 17.7203125,22.6283482 17.8589286,22.8183036 C18.0026786,23.0082589 19.8662946,25.8832589 22.7258929,27.1205357 C24.5330357,27.9008929 25.2415179,27.9676339 26.1450893,27.8341518 C26.6944196,27.7520089 27.8290179,27.1462054 28.0651786,26.4787946 C28.3013393,25.8113839 28.3013393,25.2415179 28.2294643,25.1234375 C28.1627232,24.9950893 27.9727679,24.9232143 27.6904018,24.7845982 Z" fill="#7D7971"/>
    </g>
</svg>