<?xml version="1.0" encoding="UTF-8"?>
<svg viewBox="0 0 45 45" xmlns="http://www.w3.org/2000/svg">
    <title>Xing</title>
    <g fill="none">
    <circle fill="#FFF" cx="22.4" cy="22.4" r="22.4"/>
        <path d="M21.2920525,20.136353 C21.2003025,20.3057353 20.0075225,22.4153089 17.7188325,26.4753405 C17.4690625,26.901361 17.1683225,27.1169384 16.8166025,27.1169384 L13.4982525,27.1169384 C13.1057525,27.1169384 12.8814725,26.7319797 13.0649725,26.3778177 L16.5821225,20.1517514 C16.5923225,20.1517514 16.5923225,20.146619 16.5821225,20.136353 L14.3444025,16.2559696 C14.1252225,15.8556125 14.3596925,15.5322473 14.7776725,15.5322473 L18.0960325,15.5322473 C18.4681325,15.5322473 18.7739725,15.7426913 19.0135525,16.1584468 L21.2920525,20.136353 Z M25.1609125,24.709663 L25.1609125,24.7250614 L29.8300625,33.2762776 C30.0288525,33.6407056 29.8402525,34 29.3967925,34 L26.0733325,34 C25.6859425,34 25.3801025,33.7946885 25.1558225,33.3738005 L20.4458925,24.7250614 C20.6141025,24.4273595 23.0710125,20.0644946 27.8268125,11.6261995 C28.0612925,11.210444 28.3569325,11 28.7188425,11 L32.0677825,11 C32.4755725,11 32.6947525,11.3438961 32.5010525,11.7237224 L25.1609125,24.709663 Z" fill="#7D7971"/>
    </g>
</svg>
