<?xml version="1.0" encoding="UTF-8"?>
<svg viewBox="0 0 45 45" version="1.1" xmlns="http://www.w3.org/2000/svg" xmlns:xlink="http://www.w3.org/1999/xlink">
    <title>youtube</title>
    <g id="Symbols" stroke="none" stroke-width="1" fill="none" fill-rule="evenodd">
        <g id="youtube">
            <circle id="Oval" fill="#FFFFFF" cx="22.4" cy="22.4" r="22.4"></circle>
            <path d="M35.1446488,16.1705717 C34.8233294,15.0451871 33.9549743,14.176858 32.8531072,13.8612815 L32.8295897,13.8555126 C30.7562283,13.3000157 22.4118237,13.3000157 22.4118237,13.3000157 C22.4118237,13.3000157 14.088468,13.2889354 11.9940578,13.8555126 C10.8686731,14.176832 10.0003441,15.0451871 9.68476759,16.1470542 L9.67899865,16.1705717 C9.31069616,18.066993 9.1,20.2479113 9.1,22.4780215 C9.1,22.5233155 9.1,22.5685575 9.1,22.6137995 L9.1,22.6068352 C9.1,22.6379666 9.1,22.6748411 9.1,22.7116895 C9.1,24.9416438 9.31074813,27.1223802 9.71330044,29.2350847 L9.67899865,29.0186976 C10.0003181,30.1440822 10.8686731,31.0124113 11.9705402,31.3279877 L11.9940578,31.3337567 C14.0651843,31.8903552 22.4118237,31.8903552 22.4118237,31.8903552 C22.4118237,31.8903552 30.7340621,31.8903552 32.8295897,31.3337567 C33.9549743,31.0124372 34.8233034,30.1440822 35.1388799,29.0422151 L35.1446488,29.0186976 C35.4978013,27.1614115 35.7,25.0249815 35.7,22.8413867 C35.7,22.7589324 35.6995322,22.6765302 35.6989606,22.5941799 L35.6990385,22.6068092 C35.6996622,22.5301239 35.7,22.439484 35.7,22.3487921 C35.7,20.1648854 35.4979313,18.0281437 35.1114644,15.9562895 L35.1446748,16.1705457 L35.1446488,16.1705717 Z M19.7486274,26.5883377 L19.7486274,18.6131451 L26.6938047,22.6068352 L19.7486274,26.5883377 Z" id="Shape" fill="#7D7971" fill-rule="nonzero"></path>
        </g>
    </g>
</svg>