<?xml version="1.0" encoding="UTF-8" standalone="no"?>
<svg
   aria-hidden="true"
   focusable="false"
   data-prefix="fas"
   data-icon="ruler-combined"
   class="svg-inline--fa fa-ruler-combined fa-w-16"
   role="img"
   viewBox="0 0 512 512"
   version="1.1"
   id="svg115"
   sodipodi:docname="ruler-combined-solidbb.svg"
   inkscape:version="1.1 (1:1.1+202105261517+ce6663b3b7)"
   xmlns:inkscape="http://www.inkscape.org/namespaces/inkscape"
   xmlns:sodipodi="http://sodipodi.sourceforge.net/DTD/sodipodi-0.dtd"
   xmlns="http://www.w3.org/2000/svg"
   xmlns:svg="http://www.w3.org/2000/svg">
  <defs
     id="defs119" />
  <sodipodi:namedview
     id="namedview117"
     pagecolor="#ffffff"
     bordercolor="#666666"
     borderopacity="1.0"
     inkscape:pageshadow="2"
     inkscape:pageopacity="0.0"
     inkscape:pagecheckerboard="0"
     showgrid="false"
     inkscape:zoom="1.6308594"
     inkscape:cx="54.265868"
     inkscape:cy="255.69341"
     inkscape:window-width="1920"
     inkscape:window-height="1025"
     inkscape:window-x="0"
     inkscape:window-y="25"
     inkscape:window-maximized="1"
     inkscape:current-layer="svg115" />
  <path
     fill="currentColor"
     d="M160 288h-56c-4.42 0-8-3.58-8-8v-16c0-4.42 3.58-8 8-8h56v-64h-56c-4.42 0-8-3.58-8-8v-16c0-4.42 3.58-8 8-8h56V96h-56c-4.42 0-8-3.58-8-8V72c0-4.42 3.58-8 8-8h56V32c0-17.67-14.33-32-32-32H32C14.33 0 0 14.33 0 32v448c0 2.77.91 5.24 1.57 7.8L160 329.38V288zm320 64h-32v56c0 4.42-3.58 8-8 8h-16c-4.42 0-8-3.58-8-8v-56h-64v56c0 4.42-3.58 8-8 8h-16c-4.42 0-8-3.58-8-8v-56h-64v56c0 4.42-3.58 8-8 8h-16c-4.42 0-8-3.58-8-8v-56h-41.37L24.2 510.43c2.56.66 5.04 1.57 7.8 1.57h448c17.67 0 32-14.33 32-32v-96c0-17.67-14.33-32-32-32z"
     id="path113" />
  <path
     style="fill:#a0a0a0;stroke:none;stroke-width:0.613174"
     d="M 1.0085673,484.50585 C 0.48759317,482.43687 0.30892382,423.32784 0.31565021,255.26859 0.32364716,55.463382 0.43367074,28.356924 1.2507414,24.8906 3.9457647,13.457288 13.457288,3.9457647 24.8906,1.2507414 c 5.872567,-1.38426259 104.38456,-1.38426259 110.25712,0 11.40287,2.6878476 20.95202,12.2369886 23.63986,23.6398586 0.7098,3.011214 0.92815,7.966929 0.93509,21.222965 l 0.009,17.294404 -29.27904,0.181045 c -27.57721,0.170524 -29.37888,0.24871 -30.996612,1.345156 -3.146206,2.132385 -3.494421,3.635599 -3.494421,15.084992 0,11.709053 0.398961,13.283604 3.842716,15.165667 1.802217,0.984947 4.616177,1.099438 30.954887,1.259477 l 28.97246,0.176048 v 31.555686 31.5557 h -28.84962 c -31.33705,0 -30.896289,-0.0451 -33.639953,3.44289 -1.192181,1.51561 -1.28049,2.3988 -1.28049,12.80621 0,10.40741 0.08831,11.2906 1.28049,12.8062 2.743664,3.48801 2.302903,3.4429 33.639953,3.4429 h 28.84962 V 224.11497 256 l -29.27905,0.0217 c -31.657679,0.0235 -31.035179,-0.0399 -33.297569,3.39207 -1.056271,1.60234 -1.185804,2.95342 -1.189404,12.40587 -0.0043,11.58306 0.336988,13.07058 3.490369,15.20783 1.618014,1.09664 3.414524,1.1743 30.996604,1.33995 l 29.27905,0.17584 V 308.90963 329.276 L 80.721141,408.28485 1.7105479,487.29366 Z"
     id="path238" />
  <path
     style="fill:#2f94f1;stroke:none;stroke-width:0.613174;fill-opacity:1"
     d="M 1.3180169,483.76917 C 0.64108685,478.83042 0.87208813,31.156522 1.5540008,26.439158 3.2660782,14.595277 14.236123,3.5709686 26.396169,1.4741072 c 6.040975,-1.04169739 101.205011,-1.04169739 107.245981,0 11.80463,2.0355736 22.77528,12.7831878 24.78305,24.2791858 0.50713,2.90373 1.51346,36.8459 1.10233,37.180275 -0.0563,0.0458 -13.34693,0.252738 -29.53472,0.459881 -27.0593,0.346247 -29.56459,0.466392 -31.072681,1.490122 -0.902187,0.612438 -1.936917,1.964271 -2.299401,3.004079 -0.87587,2.512534 -0.859541,21.797342 0.0206,24.322115 1.404063,4.027711 1.336865,4.018887 33.658072,4.419529 16.01916,0.19857 29.19473,0.405516 29.27904,0.45988 0.0843,0.05437 0.1533,14.171186 0.1533,31.370706 v 31.27186 l -28.35928,0.004 c -17.54501,0.002 -29.22549,0.24398 -30.63079,0.63429 -1.249342,0.34698 -2.835929,1.3484 -3.525756,2.22538 -1.164778,1.48052 -1.25424,2.43531 -1.25424,13.38575 0,10.95044 0.08946,11.90523 1.25424,13.38601 0.689827,0.87697 2.276414,1.87839 3.525756,2.22538 1.4053,0.3903 13.08578,0.63217 30.63079,0.63429 l 28.35928,0.003 v 31.86289 31.8629 l -30.09625,0.17543 -30.096242,0.17543 -1.788787,2.00249 -1.788787,2.00248 v 10.93595 c 0,11.86297 0.419368,14.10699 2.958452,15.8306 1.508984,1.02433 3.997384,1.14238 31.072684,1.47403 16.18779,0.19829 29.50132,0.40524 29.58563,0.45988 0.0843,0.0546 0.1533,8.99844 0.1533,19.8751 v 19.77574 L 80.724005,407.66881 1.7162734,486.67476 Z"
     id="path277" />
  <path
     style="fill:#2f94f1;fill-opacity:1;stroke-width:0.613174"
     d="m 27.365528,510.94093 -2.373394,-0.63069 79.019206,-79.02099 79.01921,-79.02099 h 20.37192 20.37191 l 0.17029,29.78642 0.1703,29.78642 2.29039,2.09861 2.2904,2.09861 h 11.27003 c 10.5004,0 11.38119,-0.0874 12.8979,-1.28049 3.48801,-2.74366 3.4429,-2.3029 3.4429,-33.63995 v -28.84962 h 31.55569 31.55569 l 0.17605,28.97246 c 0.16004,26.33871 0.27453,29.15267 1.25947,30.95489 1.88207,3.44375 3.45662,3.84271 15.16567,3.84271 11.70906,0 13.28361,-0.39896 15.16567,-3.84271 0.98495,-1.80222 1.09944,-4.61618 1.25948,-30.95489 l 0.17604,-28.97246 h 31.55569 31.5557 v 28.84962 c 0,31.33705 -0.0451,30.89629 3.44289,33.63995 1.51561,1.19218 2.3988,1.28049 12.80621,1.28049 10.40741,0 11.2906,-0.0883 12.8062,-1.28049 3.48841,-2.74398 3.4429,-2.29867 3.4429,-33.68615 v -28.89581 l 19.16168,0.23427 c 17.90349,0.21889 19.4,0.32275 22.79121,1.58182 4.98349,1.85022 8.77487,4.4004 12.77147,8.59042 3.69651,3.8754 5.87318,7.68409 7.61198,13.31926 1.05679,3.42488 1.12713,6.92468 1.12713,56.0792 0,49.15066 -0.0704,52.65622 -1.12745,56.10539 -3.17756,10.36892 -10.37372,18.12059 -20.33362,21.90331 l -3.67905,1.39729 -228.40718,0.0924 c -154.84072,0.0626 -229.171622,-0.11074 -230.780582,-0.5383 z"
     id="path1168" />
</svg>
