<?xml version="1.0" encoding="UTF-8"?>
<svg viewBox="0 0 278 278" version="1.1" xmlns="http://www.w3.org/2000/svg" xmlns:xlink="http://www.w3.org/1999/xlink">
    <title>LUSINI_Logo_Quadrat_Web</title>
    <g id="Page-1" stroke="none" stroke-width="1" fill="none" fill-rule="evenodd">
        <g id="LUSINI_Logo_Quadrat_Web" fill-rule="nonzero">
            <rect id="Rectangle" fill="#D6A444" x="0.44" y="0.44" width="277.12" height="277.12"></rect>
            <path d="M199.46,161.72 L125.76,161.72 C121.79,161.72 118.5,161.43 115.69,160.85 C112.42,160.17 109.67,158.85 107.52,156.93 C105.31,154.97 103.72,152.36 102.79,149.18 C101.97,146.39 101.57,143 101.57,138.82 L101.57,135.79 C96.28,134.5 91.82,132.48 88.31,129.78 C84.54,126.87 81.76,123.15 80.06,118.7 C78.47,114.54 77.66,109.6 77.66,104.03 L77.66,39.92 L110.91,39.92 L110.91,127.92 C113.92,128.24 117.25,128.4 120.86,128.4 L199.45,128.4 L199.45,161.72 L199.46,161.72 Z M110.91,137.31 L110.91,138.83 C110.91,142.06 111.19,144.66 111.75,146.56 C112.19,148.06 112.83,149.17 113.72,149.96 C114.64,150.78 115.94,151.37 117.59,151.71 C119.73,152.16 122.48,152.38 125.75,152.38 L190.16,152.38 L190.16,137.75 L120.85,137.75 C117.31,137.75 113.99,137.6 110.91,137.31 Z M87.01,49.27 L87.01,104.04 C87.01,108.47 87.61,112.28 88.8,115.38 C89.89,118.24 91.6,120.53 94.02,122.4 C96.02,123.94 98.55,125.19 101.57,126.13 L101.57,49.28 L87.01,49.28 L87.01,49.27 Z" id="Shape" fill="#FFFFFF"></path>
            <g id="Group" transform="translate(24.000000, 200.000000)" fill="#FFFFFF">
                <path d="M10.3,22.63 C10.3,24.14 10.44,25.37 10.72,26.33 C11,27.29 11.46,28.05 12.09,28.61 C12.72,29.17 13.54,29.56 14.55,29.77 C15.56,29.98 16.8,30.09 18.28,30.09 L36.83,30.09 L36.83,38.13 L16.28,38.13 C13.43,38.13 11.01,37.9 9.02,37.43 C7.03,36.96 5.4,36.24 4.13,35.27 C2.87,34.3 1.95,33.06 1.38,31.57 C0.81,30.08 0.52,28.3 0.52,26.25 L0.52,1.93 L10.3,1.93 L10.3,22.63 Z" id="Path"></path>
                <path d="M85.52,31.04 C84.62,32.64 83.28,34.04 81.49,35.23 C79.7,36.42 77.46,37.37 74.78,38.06 C72.1,38.75 68.97,39.1 65.39,39.1 C61.81,39.1 58.67,38.75 55.97,38.06 C53.27,37.37 51.03,36.42 49.24,35.23 C47.45,34.04 46.1,32.64 45.21,31.04 C44.31,29.44 43.87,27.74 43.87,25.93 L43.87,1.93 L53.62,1.93 L53.62,22.43 C53.62,23.64 53.77,24.79 54.08,25.87 C54.39,26.95 54.97,27.89 55.82,28.7 C56.67,29.51 57.87,30.15 59.4,30.62 C60.94,31.09 62.93,31.33 65.39,31.33 C67.83,31.33 69.82,31.09 71.35,30.62 C72.88,30.15 74.07,29.5 74.92,28.7 C75.77,27.89 76.35,26.95 76.65,25.87 C76.95,24.79 77.1,23.64 77.1,22.43 L77.1,1.93 L86.88,1.93 L86.88,25.93 C86.86,27.74 86.41,29.44 85.52,31.04 Z" id="Path"></path>
                <path d="M130.48,12.12 C129.79,11.79 128.89,11.41 127.77,10.99 C126.65,10.57 125.37,10.17 123.95,9.79 C122.53,9.41 120.98,9.1 119.31,8.84 C117.64,8.59 115.93,8.46 114.17,8.46 C112.76,8.46 111.57,8.5 110.57,8.59 C109.58,8.68 108.74,8.79 108.07,8.93 C107.39,9.07 106.86,9.23 106.46,9.42 C106.06,9.6 105.76,9.79 105.55,9.99 C105.34,10.18 105.2,10.38 105.14,10.57 C105.08,10.76 105.05,10.94 105.05,11.1 C105.05,11.63 105.31,12.09 105.84,12.48 C106.37,12.87 107.09,13.23 108,13.53 C108.91,13.84 109.98,14.13 111.19,14.4 C112.4,14.67 113.69,14.95 115.05,15.24 C116.41,15.53 117.82,15.85 119.27,16.19 C120.72,16.53 122.12,16.93 123.49,17.39 C124.85,17.85 126.14,18.38 127.35,18.98 C128.56,19.59 129.62,20.29 130.54,21.1 C131.45,21.91 132.17,22.84 132.7,23.89 C133.23,24.94 133.49,26.15 133.49,27.5 C133.49,29.24 133.18,30.73 132.57,31.98 C131.95,33.23 131.13,34.28 130.11,35.14 C129.08,36 127.89,36.69 126.54,37.21 C125.19,37.73 123.77,38.13 122.28,38.41 C120.8,38.69 119.29,38.88 117.77,38.96 C116.25,39.05 114.81,39.09 113.44,39.09 C109.86,39.09 106.54,38.8 103.49,38.21 C100.44,37.62 97.75,36.89 95.41,36.01 L95.41,27.37 C97.82,28.71 100.56,29.75 103.64,30.51 C106.72,31.27 110.02,31.64 113.53,31.64 C115.6,31.64 117.29,31.53 118.6,31.31 C119.91,31.09 120.93,30.81 121.67,30.47 C122.41,30.13 122.91,29.75 123.17,29.35 C123.43,28.95 123.57,28.56 123.57,28.19 C123.57,27.61 123.31,27.11 122.78,26.67 C122.25,26.24 121.53,25.86 120.62,25.54 C119.71,25.22 118.64,24.92 117.43,24.64 C116.22,24.37 114.93,24.1 113.57,23.82 C112.21,23.55 110.81,23.25 109.37,22.94 C107.93,22.62 106.53,22.25 105.17,21.82 C103.81,21.39 102.52,20.89 101.31,20.32 C100.1,19.75 99.03,19.07 98.12,18.29 C97.21,17.51 96.49,16.6 95.96,15.58 C95.43,14.55 95.17,13.36 95.17,12.01 C95.17,10.41 95.45,9.03 96.01,7.87 C96.57,6.71 97.33,5.72 98.29,4.91 C99.25,4.09 100.35,3.43 101.61,2.92 C102.87,2.41 104.19,2.02 105.58,1.73 C106.97,1.45 108.37,1.26 109.8,1.15 C111.22,1.04 112.58,0.99 113.86,0.99 C115.27,0.99 116.71,1.06 118.19,1.2 C119.67,1.34 121.14,1.54 122.58,1.79 C124.02,2.04 125.41,2.34 126.76,2.67 C128.1,3 129.35,3.36 130.49,3.72 L130.49,12.12 L130.48,12.12 Z" id="Path"></path>
                <polygon id="Path" points="142.74 38.13 142.74 1.93 152.52 1.93 152.52 38.13"></polygon>
                <polygon id="Path" points="197.77 38.13 173.34 13.26 173.34 38.13 163.56 38.13 163.56 1.93 174.18 1.93 198.63 26.91 198.63 1.93 208.35 1.93 208.35 38.13"></polygon>
                <polygon id="Path" points="219.7 38.13 219.7 1.93 229.48 1.93 229.48 38.13"></polygon>
            </g>
        </g>
    </g>
</svg>