<?xml version="1.0" encoding="UTF-8"?>
<svg viewBox="0 0 1001 278" version="1.1" xmlns="http://www.w3.org/2000/svg" xmlns:xlink="http://www.w3.org/1999/xlink">
    <title>LUSINI_Logo_Schriftzug_Web</title>
    <g id="Page-1" stroke="none" stroke-width="1" fill="none" fill-rule="evenodd">
        <g id="LUSINI_Logo_Schriftzug_Web" fill="#D6A444" fill-rule="nonzero">
            <g id="Group">
                <path d="M43.7,94.93 C43.7,101.53 44.31,106.92 45.54,111.1 C46.77,115.28 48.76,118.6 51.52,121.06 C54.28,123.52 57.87,125.2 62.28,126.12 C66.69,127.04 72.12,127.5 78.57,127.5 L159.59,127.5 L159.59,162.6 L69.82,162.6 C57.39,162.6 46.82,161.58 38.11,159.55 C29.4,157.52 22.28,154.37 16.76,150.11 C11.24,145.85 7.22,140.46 4.73,133.94 C2.24,127.42 0.99,119.67 0.99,110.69 L0.99,4.47 L43.69,4.47 L43.69,94.93 L43.7,94.93 Z" id="Path"></path>
                <path d="M372.23,131.64 C368.32,138.62 362.45,144.72 354.62,149.94 C346.79,155.16 337.03,159.28 325.33,162.31 C313.63,165.34 299.95,166.86 284.3,166.86 C268.65,166.86 254.93,165.34 243.15,162.31 C231.37,159.28 221.57,155.16 213.74,149.94 C205.91,144.72 200.04,138.62 196.13,131.64 C192.22,124.66 190.26,117.22 190.26,109.31 L190.26,4.47 L232.84,4.47 L232.84,94.01 C232.84,99.3 233.51,104.31 234.85,109.03 C236.19,113.75 238.72,117.87 242.45,121.4 C246.17,124.93 251.39,127.73 258.1,129.8 C264.81,131.87 273.54,132.91 284.28,132.91 C294.94,132.91 303.62,131.87 310.29,129.8 C316.97,127.73 322.16,124.93 325.88,121.4 C329.6,117.87 332.11,113.75 333.42,109.03 C334.72,104.31 335.38,99.3 335.38,94.01 L335.38,4.47 L378.080152,4.47 L378.080152,109.32 C378.1,117.22 376.14,124.66 372.23,131.64 Z" id="Path"></path>
                <path d="M568.63,49.01 C565.64,47.55 561.68,45.9 556.78,44.06 C551.87,42.22 546.31,40.47 540.09,38.82 C533.88,37.17 527.12,35.79 519.83,34.68 C512.54,33.57 505.06,33.01 497.39,33.01 C491.25,33.01 486.01,33.2 481.68,33.59 C477.34,33.98 473.7,34.47 470.75,35.09 C467.8,35.71 465.46,36.41 463.73,37.22 C462,38.03 460.68,38.85 459.76,39.69 C458.84,40.54 458.24,41.38 457.98,42.22 C457.71,43.07 457.58,43.83 457.58,44.52 C457.58,46.82 458.73,48.84 461.03,50.56 C463.33,52.29 466.48,53.82 470.47,55.16 C474.46,56.5 479.1,57.77 484.4,58.96 C489.69,60.15 495.31,61.38 501.26,62.64 C507.2,63.91 513.34,65.29 519.67,66.78 C526,68.27 532.14,70.02 538.08,72.02 C544.02,74.02 549.65,76.34 554.94,78.98 C560.23,81.63 564.88,84.72 568.87,88.24 C572.86,91.77 576.01,95.84 578.31,100.44 C580.61,105.04 581.76,110.3 581.76,116.21 C581.76,123.81 580.42,130.33 577.73,135.78 C575.04,141.23 571.46,145.83 566.97,149.59 C562.48,153.35 557.28,156.36 551.38,158.62 C545.47,160.88 539.28,162.63 532.79,163.86 C526.3,165.09 519.74,165.89 513.11,166.28 C506.47,166.66 500.16,166.86 494.18,166.86 C478.53,166.86 464.04,165.57 450.73,163 C437.42,160.43 425.66,157.23 415.45,153.39 L415.45,115.64 C425.96,121.47 437.95,126.04 451.42,129.34 C464.89,132.64 479.29,134.29 494.64,134.29 C503.69,134.29 511.08,133.81 516.8,132.85 C522.51,131.89 526.99,130.66 530.21,129.17 C533.43,127.67 535.62,126.05 536.77,124.28 C537.92,122.52 538.5,120.83 538.5,119.22 C538.5,116.69 537.35,114.48 535.05,112.6 C532.75,110.72 529.6,109.07 525.61,107.65 C521.62,106.23 516.98,104.93 511.68,103.74 C506.39,102.55 500.76,101.36 494.82,100.17 C488.87,98.98 482.75,97.7 476.46,96.31 C470.17,94.93 464.05,93.3 458.1,91.42 C452.15,89.54 446.53,87.35 441.24,84.86 C435.95,82.37 431.3,79.41 427.31,76 C423.32,72.59 420.17,68.63 417.87,64.15 C415.57,59.67 414.42,54.47 414.42,48.56 C414.42,41.58 415.65,35.55 418.1,30.49 C420.55,25.43 423.87,21.11 428.06,17.54 C432.24,13.97 437.07,11.08 442.56,8.85 C448.04,6.63 453.82,4.9 459.88,3.67 C465.94,2.44 472.08,1.6 478.29,1.14 C484.5,0.68 490.41,0.45 496.01,0.45 C502.15,0.45 508.46,0.76 514.94,1.37 C521.42,1.99 527.81,2.85 534.1,3.96 C540.39,5.07 546.47,6.36 552.34,7.82 C558.21,9.28 563.64,10.81 568.63,12.42 L568.63,49.01 L568.63,49.01 Z" id="Path"></path>
                <polygon id="Path" points="622.15 162.6 622.15 4.47 664.85 4.47 664.85 162.6"></polygon>
                <polygon id="Path" points="862.55 162.6 755.86 53.95 755.86 162.6 713.16 162.6 713.16 4.47 759.54 4.47 866.34 113.58 866.34 4.47 908.81 4.47 908.81 162.6"></polygon>
                <polygon id="Path" points="958.3 162.6 958.3 4.47 1001 4.47 1001 162.6"></polygon>
            </g>
            <g id="Group" transform="translate(1.000000, 214.000000)">
                <rect id="Rectangle" x="0.07" y="0.59" width="62.97" height="62.97"></rect>
                <rect id="Rectangle" x="84.5" y="0.59" width="62.97" height="62.97"></rect>
                <rect id="Rectangle" x="168.93" y="0.59" width="62.97" height="62.97"></rect>
            </g>
        </g>
    </g>
</svg>