<?xml version="1.0" encoding="utf-8"?>
<!-- Generator: Adobe Illustrator 25.4.0, SVG Export Plug-In . SVG Version: 6.00 Build 0)  -->
<svg version="1.1" id="ERWIN_M." xmlns="http://www.w3.org/2000/svg" xmlns:xlink="http://www.w3.org/1999/xlink" x="0px" y="0px"
	 viewBox="0 0 500 500" style="enable-background:new 0 0 500 500;" xml:space="preserve">
<style type="text/css">
	.em0{fill:#0B75BB;}
	.em1{fill:#FFFFFF;}
</style>
<g>
	<rect class="em0" width="500" height="500"/>
	<polygon class="em1" points="139,322.38 161.07,322.38 161.07,327.05 144.26,327.05 144.26,340.44 160.11,340.44 160.11,345.1 
		144.26,345.1 144.26,360.42 161.79,360.42 161.79,365.08 139,365.08 	"/>
	<path class="em1" d="M178.84,341.34h7.15c5.75,0,7.96-3.79,7.96-7.53c0-4.78-2.35-7.03-7.84-7.03h-7.28L178.84,341.34
		L178.84,341.34z M173.44,322.36h13.96c4.53,0,7.03,0.68,9,2.52c2.2,2.08,3.19,5.43,3.19,8.55c0,6.05-2.15,8.87-8.44,10.22
		c2.57,0.49,4.29,2.41,5.15,4.86l5.5,16.56h-5.82l-3.89-14.44c-1.22-3.55-3.6-4.89-6.8-4.89h-6.44v19.34h-5.39v-42.72H173.44z"/>
	<polygon class="em1" points="209.05,322.36 214.68,322.36 221.66,357 221.78,357 229.43,322.36 236.28,322.36 243.93,357 
		244.06,357 251.52,322.36 256.66,322.36 247.36,365.08 240.99,365.08 232.91,328.48 232.79,328.48 224.71,365.08 218.35,365.08 	
		"/>
	<rect x="267.32" y="322.37" class="em1" width="5.38" height="42.72"/>
	<polygon class="em1" points="285.67,322.36 292.34,322.36 308.44,357.62 308.56,357.62 308.56,322.36 313.71,322.36 313.71,365.08 
		307.03,365.08 290.94,330.08 290.81,330.08 290.81,365.08 285.67,365.08 	"/>
	<polygon class="em1" points="345.62,322.36 353.94,322.36 364.66,356.33 364.77,356.33 375.72,322.36 383.8,322.36 383.8,365.08 
		378.67,365.08 378.67,328.24 378.54,328.24 366.43,365.08 362.49,365.08 350.89,328.24 350.75,328.24 350.75,365.08 345.62,365.08 
			"/>
	<path class="em1" d="M398.22,359.58c1.54,0,2.78,1.23,2.78,2.78s-1.23,2.78-2.78,2.78s-2.78-1.22-2.78-2.78
		C395.44,360.82,396.66,359.58,398.22,359.58"/>
	<path class="em1" d="M442.15,243.77c-0.69-0.79-1.86-0.98-2.78-0.44l-16.15,9.52l11.53-15.26c0.64-0.85,0.58-2.03-0.14-2.82
		c-0.72-0.78-1.89-0.94-2.79-0.36l-15.57,9.79l5.63-9.52c0.51-0.85,0.36-1.94-0.32-2.66c-0.71-0.72-1.79-0.87-2.65-0.39
		l-75.75,42.34l28.45-23c0.88-0.72,1.08-1.97,0.46-2.92s-1.85-1.28-2.85-0.76l-29.57,15.16l31.95-25.3
		c0.88-0.71,1.09-1.97,0.47-2.92c-0.62-0.96-1.85-1.28-2.87-0.76l-30.18,15.63l32.59-26.35c0.88-0.71,1.08-1.97,0.46-2.92
		c-0.63-0.95-1.86-1.27-2.87-0.74l-29.46,15.42l31.86-25.59c0.88-0.71,1.08-1.97,0.46-2.92s-1.85-1.28-2.85-0.76l-30.54,15.67
		l32.93-26.63c0.88-0.72,1.08-1.97,0.46-2.92c-0.63-0.95-1.85-1.28-2.87-0.75c-13.57,7.02-23.43,12.15-30.62,15.91
		c2.69-2.24,5.5-4.6,8.32-6.95c12.37-10.33,24.73-20.67,24.73-20.67c0.88-0.74,1.06-2.01,0.41-2.94c-0.64-0.94-1.9-1.23-2.89-0.68
		l-31.98,17.74l33.77-29.95c0.85-0.75,0.99-2.03,0.31-2.95c-0.66-0.91-1.93-1.17-2.9-0.58l-30.46,18.2l28.59-26.36
		c0.83-0.76,0.95-2.04,0.26-2.94c-0.67-0.9-1.94-1.15-2.91-0.56l-27.94,16.86l22.62-22.07c0.78-0.77,0.89-2.01,0.23-2.89
		c-0.65-0.88-1.86-1.15-2.82-0.62l-30.98,16.97l13.5-17.09c0.66-0.85,0.62-2.05-0.1-2.85c-0.72-0.79-1.92-0.95-2.82-0.36
		l-57.03,36.99c-0.03,0.02-0.08,0.02-0.1,0.03l-28.76,17.41l30.61-27.16c0.86-0.75,1-2.03,0.33-2.95c-0.67-0.91-1.94-1.17-2.91-0.58
		l-30.46,18.2l28.57-26.35c0.83-0.77,0.95-2.04,0.28-2.94c-0.68-0.92-1.94-1.16-2.9-0.57l-27.94,16.86l22.6-22.07
		c0.81-0.77,0.9-2.01,0.24-2.89s-1.86-1.15-2.83-0.62l-30.97,16.97l13.5-17.09c0.67-0.85,0.63-2.06-0.1-2.85s-1.92-0.95-2.82-0.36
		l-56.92,37.01c-0.01,0.01-0.02,0.01-0.02,0.01l-28.77,17.41l30.63-27.16c0.85-0.75,0.99-2.03,0.31-2.95
		c-0.66-0.91-1.93-1.17-2.9-0.58l-30.46,18.2l28.57-26.35c0.84-0.77,0.95-2.04,0.28-2.95c-0.68-0.9-1.94-1.15-2.9-0.56l-27.93,16.86
		l22.61-22.07c0.79-0.77,0.88-2.01,0.23-2.89c-0.65-0.88-1.86-1.15-2.83-0.62l-30.97,16.97l13.5-17.09
		c0.66-0.84,0.64-2.02-0.06-2.81c-0.69-0.81-1.86-1-2.78-0.46l-84.83,49.42c-1.05,0.62-1.4,1.96-0.79,3.01
		c0.62,1.06,1.96,1.41,3.02,0.8l74.76-43.57L133.6,161.9c-0.65,0.82-0.64,1.98,0.04,2.79c0.67,0.79,1.82,1.01,2.75,0.51l26.37-14.44
		l-24.73,24.12c-0.79,0.78-0.88,2.04-0.2,2.92c0.68,0.88,1.92,1.11,2.88,0.54l25.63-15.46l-28.25,26.05
		c-0.84,0.77-0.96,2.04-0.28,2.94c0.67,0.9,1.93,1.16,2.9,0.57l28.55-17.07L138.11,203c-0.85,0.76-0.98,2.04-0.31,2.97
		c0.67,0.92,1.94,1.17,2.92,0.57l28.71-17.37c-14.96,13.25-30.45,26.95-31.22,27.59l0.01,0.02c-0.18,0.12-0.22,0.16-0.26,0.21
		c-0.79,0.87-0.78,2.2,0.04,3.04c0.79,0.82,1.17,1.19,2.77,0.1l0.1,0.14c1.06-0.71,14.9-8.3,29.61-16.33l-32.31,26.95
		c-0.86,0.72-1.05,1.97-0.43,2.91c0.62,0.94,1.85,1.26,2.84,0.74l30.23-15.5l-32.61,26.2c-0.88,0.71-1.09,1.97-0.46,2.92
		c0.62,0.95,1.85,1.27,2.87,0.75l29.79-15.61l-32.2,26.05c-0.87,0.71-1.08,1.97-0.45,2.92c0.62,0.95,1.85,1.27,2.85,0.75
		l29.16-15.11l-31.54,25c-0.89,0.69-1.1,1.95-0.49,2.91c0.62,0.95,1.85,1.29,2.86,0.77l30.55-15.67l-32.94,26.63
		c-0.88,0.72-1.08,1.98-0.45,2.93c0.42,0.64,1.12,0.99,1.84,0.99c0.35,0,0.71-0.09,1.03-0.25l49.26-25.93
		c1.07-0.57,1.49-1.91,0.91-2.99c-0.56-1.07-1.9-1.49-2.98-0.92l-29.35,15.45l32.01-25.89c0.88-0.72,1.08-1.97,0.46-2.92
		s-1.85-1.28-2.85-0.76l-29.57,15.16l31.94-25.3c0.89-0.71,1.1-1.97,0.49-2.92c-0.62-0.96-1.85-1.28-2.87-0.76l-30.17,15.63
		l32.58-26.34c0.88-0.72,1.08-1.98,0.45-2.93c-0.62-0.95-1.86-1.27-2.87-0.74l-29.45,15.42l31.85-25.59
		c0.88-0.71,1.09-1.97,0.47-2.92s-1.85-1.28-2.85-0.76l-31.84,16.33l34.25-28.57c0.87-0.73,1.05-2,0.42-2.93
		c-0.64-0.94-1.88-1.23-2.88-0.69c-14.25,7.75-24.42,13.3-31.68,17.27c3.01-2.67,6.24-5.52,9.46-8.38
		c11.57-10.24,23.11-20.47,24.57-21.77L236,146.83l-11.91,15.06c-0.65,0.83-0.64,1.99,0.04,2.8c0.67,0.79,1.82,1.01,2.75,0.51
		l26.37-14.44l-24.72,24.12c-0.81,0.77-0.89,2.04-0.21,2.92s1.93,1.12,2.88,0.54l25.63-15.46l-28.25,26.05
		c-0.84,0.77-0.95,2.04-0.28,2.94c0.67,0.9,1.93,1.16,2.9,0.57l28.55-17.07L228.6,203c-0.85,0.76-0.98,2.04-0.31,2.95
		c0.68,0.93,1.94,1.18,2.92,0.58l28.71-17.37c-14.95,13.25-30.45,26.96-31.22,27.6l0.01,0.01c-0.18,0.12-0.22,0.16-0.26,0.21
		c-0.79,0.87-0.78,2.2,0.04,3.04c0.79,0.82,1.17,1.19,2.78,0.1l0.09,0.14c1.06-0.71,14.9-8.29,29.61-16.33l-32.31,26.95
		c-0.86,0.72-1.05,1.97-0.43,2.91c0.63,0.94,1.85,1.26,2.84,0.74l30.23-15.5l-32.61,26.2c-0.88,0.71-1.09,1.97-0.46,2.92
		c0.62,0.95,1.86,1.28,2.87,0.75l29.79-15.6l-32.2,26.04c-0.87,0.71-1.07,1.97-0.45,2.92c0.62,0.95,1.85,1.27,2.85,0.75l29.16-15.11
		l-31.54,25c-0.89,0.69-1.1,1.95-0.49,2.91c0.62,0.95,1.85,1.29,2.86,0.77l30.55-15.67l-32.94,26.63c-0.88,0.72-1.07,1.98-0.45,2.92
		c0.42,0.64,1.12,0.99,1.84,0.99c0.35,0,0.71-0.08,1.03-0.25l49.24-25.92c1.08-0.57,1.5-1.91,0.92-2.98
		c-0.56-1.08-1.9-1.5-2.97-0.93l-29.35,15.45l32.01-25.89c0.88-0.72,1.08-1.97,0.46-2.92c-0.63-0.95-1.85-1.28-2.85-0.76L249,262.46
		l31.94-25.3c0.89-0.71,1.1-1.97,0.49-2.92c-0.63-0.96-1.85-1.28-2.87-0.76l-30.17,15.63l32.58-26.35c0.88-0.71,1.08-1.97,0.45-2.92
		c-0.63-0.95-1.85-1.27-2.87-0.74l-29.45,15.42l31.86-25.59c0.88-0.71,1.08-1.97,0.46-2.92c-0.63-0.95-1.84-1.28-2.85-0.76
		l-31.84,16.33l34.25-28.57c0.87-0.72,1.05-1.98,0.42-2.93c-0.65-0.94-1.88-1.23-2.88-0.69c-14.25,7.75-24.42,13.3-31.68,17.27
		c3.01-2.67,6.24-5.52,9.46-8.38c11.41-10.11,22.8-20.2,24.48-21.71l45.92-29.78l-11.94,15.1c-0.64,0.82-0.62,1.98,0.05,2.79
		c0.67,0.79,1.81,1.01,2.73,0.51l26.38-14.44l-24.72,24.12c-0.82,0.78-0.89,2.04-0.21,2.92s1.93,1.12,2.89,0.54l25.62-15.46
		l-28.25,26.05c-0.85,0.77-0.95,2.04-0.28,2.94c0.67,0.9,1.93,1.15,2.9,0.57l28.55-17.07l-31.15,27.63
		c-0.85,0.75-0.98,2.01-0.33,2.92c0.65,0.93,1.88,1.2,2.87,0.66l29.26-16.23c-14.51,12.14-30.77,25.7-31.63,26.36l0.01,0.02
		c-0.22,0.14-0.28,0.2-0.33,0.25c-0.78,0.86-0.77,2.18,0.02,3.02c0.78,0.83,1.13,1.2,2.78,0.14l0.09,0.13
		c1.09-0.69,15.08-8.02,29.86-15.71l-32.52,26.3c-0.87,0.71-1.07,1.97-0.46,2.92c0.63,0.94,1.85,1.27,2.87,0.75l30.21-15.5
		l-32.61,26.2c-0.87,0.71-1.07,1.97-0.46,2.92c0.63,0.95,1.86,1.28,2.88,0.75l29.8-15.61l-32.21,26.05
		c-0.87,0.71-1.07,1.97-0.46,2.92c0.63,0.95,1.85,1.27,2.87,0.75l29.16-15.11l-31.55,25c-0.87,0.69-1.09,1.95-0.49,2.91
		c0.63,0.95,1.85,1.29,2.88,0.77l30.54-15.67l-31.83,25.74l-0.79,0.44c-0.7,0.4-1.14,1.12-1.14,1.93v0.24c0,0.85,0.5,1.62,1.25,2
		c0.32,0.13,0.64,0.21,0.95,0.21c0.51,0,1-0.18,1.39-0.5l0.83-0.66l90.98-50.88l-6.09,10.33c-0.52,0.87-0.37,1.99,0.36,2.7
		c0.72,0.71,1.85,0.83,2.71,0.29l13.04-8.21L413,259.04c-0.63,0.84-0.58,2.02,0.11,2.8c0.71,0.78,1.87,0.97,2.78,0.43L431.6,253
		l-6.82,8.73c-0.75,0.96-0.57,2.34,0.39,3.1c0.95,0.75,2.34,0.57,3.08-0.39l14.01-17.9C442.87,245.75,442.84,244.57,442.15,243.77"
		/>
</g>
</svg>
