<?xml version="1.0" encoding="utf-8"?>
<!-- Generator: Adobe Illustrator 25.4.0, SVG Export Plug-In . SVG Version: 6.00 Build 0)  -->
<svg version="1.1" id="JOBELINE" xmlns="http://www.w3.org/2000/svg" xmlns:xlink="http://www.w3.org/1999/xlink" x="0px" y="0px"
	 viewBox="0 0 500 500" style="enable-background:new 0 0 500 500;" xml:space="preserve">
<style type="text/css">
	.jl0{fill:#1A1A19;}
	.jl1{fill:#FFFFFF;}
</style>
<rect class="jl0" width="500" height="500"/>
<path class="jl1" d="M123.98,402.96c0-9.24-5.14-15.96-13.66-15.96c-8.53,0-13.66,6.72-13.66,15.96s5.14,15.96,13.66,15.96
	C118.84,418.92,123.98,412.2,123.98,402.96 M173.11,404.28h-10.44v13.76h11.31c5.52,0,8.31-2.78,8.31-7.16
	C182.29,405.37,177.43,404.28,173.11,404.28 M180.43,393.61c0-3.66-2.25-5.73-8.14-5.73h-9.62v12.08h9.56
	C177.32,399.96,180.43,398.43,180.43,393.61 M458.34,422.58h-28.97v-39.24h28.59v4.7h-23.29v12.02h21.48v4.7h-21.48v13.12h23.67
	V422.58z M397.83,422.58h-5.96l-19.94-31.7h-0.11v31.7h-5.14v-39.24h6.29l19.62,31.7h0.11v-31.7h5.14v39.24H397.83z M334.93,422.58
	h-5.3v-39.24h5.3V422.58z M322.07,122.11c0.35,0.31,0.6,0.72,0.6,1.22c0,0.92-0.75,1.66-1.67,1.66V125H206.66
	c-3.69,0-6.67-2.98-6.67-6.66V81.67c0-3.69,2.98-6.67,6.67-6.67h62.84c3.72,0,7.07,1.53,9.49,3.99l43.09,43.09L322.07,122.11z
	 M181.67,200h36.67c3.68,0,6.67,2.99,6.67,6.67v114.31c0,0.92-0.75,1.66-1.67,1.66c-0.52,0-0.94-0.28-1.25-0.66l-0.08,0.02
	l-43.1-43.1c-0.01-0.01-0.01-0.01-0.01-0.01l-0.01-0.01v-0.01c-2.4-2.41-3.89-5.74-3.89-9.41v-62.81
	C175,202.99,177.99,200,181.67,200 M174.64,383.34c7.32,0,11.09,4.54,11.09,9.9c0,2.56-0.93,6.17-5.24,8.2
	c2.56,1.04,7.1,2.85,7.1,9.57c0,6.29-4.64,11.58-13.33,11.58h-16.89v-39.24h17.27V383.34z M129.45,402.96
	c0,8.47-4.48,20.66-19.13,20.66s-19.13-12.19-19.13-20.66s4.49-20.66,19.13-20.66S129.45,394.49,129.45,402.96 M65.65,411.89
	c0,9.18-6,11.65-11.31,11.65c-0.12,0-1.78,0-1.88-0.01c-8.83-0.16-10.79-6.16-10.79-9.78v-3.87h4.97v2.72c0,4.56,2.1,6.29,5.57,6.4
	c0.11,0.01,1.75,0.01,1.86,0.01c4.92,0,6.28-2.95,6.28-6.78v-28.96h5.3V411.89z M281.04,383.34v34.54h19.9v4.7h-25.2v-39.24
	L281.04,383.34L281.04,383.34z M231.68,281.67c0-3.68,2.98-6.67,6.67-6.67H321c0.92,0,1.67,0.75,1.67,1.66
	c0,0.48-0.21,0.89-0.54,1.2l-43.05,43.05l-0.04,0.02c-2.42,2.5-5.79,4.07-9.54,4.07h-31.16c-3.69,0-6.67-2.99-6.67-6.67
	L231.68,281.67L231.68,281.67z M222.46,404.77v13.12h23.67v4.7h-28.96v-39.24h28.58v4.7h-23.28v12.02h21.48v4.7L222.46,404.77
	L222.46,404.77z M41.73,436.61l416.44,0.02v4.66H41.73V436.61z M318.34,131.67c3.68,0,6.66,2.99,6.66,6.67v123.33
	c0,3.69-2.98,6.67-6.66,6.67h-36.67c-3.68,0-6.66-2.98-6.66-6.67V138.34c0-3.68,2.98-6.67,6.66-6.67"/>
</svg>
