<svg id="Ebene_1" data-name="Ebene 1" xmlns="http://www.w3.org/2000/svg" xmlns:xlink="http://www.w3.org/1999/xlink" viewBox="0 0 936.47 936.47"><defs><style>.cls-1{fill:none;}.cls-2{clip-path:url(#clip-path);}.cls-3{fill:#d6a444;}.cls-4{fill:#fff;}</style><clipPath id="clip-path" transform="translate(0.47 0.88)"><rect class="cls-1" x="-0.47" y="-0.88" width="936.47" height="936.47"/></clipPath></defs><g class="cls-2"><polygon class="cls-3" points="936.47 936.47 0 936.47 0 0 936.47 0 936.47 936.47 936.47 936.47"/></g><path class="cls-4" d="M292.06,164.12V349.2c0,15,2,27.86,6,38.32a53,53,0,0,0,17.65,23.72c6.75,5.2,15.31,9.42,25.52,12.59V164.12Zm80.78,297.53v5.13c0,10.91,1,19.7,2.84,26.12,1.48,5.06,3.66,8.82,6.66,11.48s7.51,4.76,13.09,5.92c7.25,1.52,16.53,2.28,27.59,2.28H640.69V463.13H406.47c-12,0-23.24-.5-33.63-1.48Zm299.22,82.49H423c-13.41,0-24.54-1-34-2.94-11-2.31-20.34-6.76-27.62-13.23-7.46-6.63-12.83-15.44-16-26.18-2.77-9.44-4.12-20.89-4.12-35V456.55c-17.88-4.35-32.95-11.19-44.8-20.32a84.76,84.76,0,0,1-27.86-37.44c-5.38-14.07-8.12-30.76-8.12-49.59V132.56H372.84V429.94a320.37,320.37,0,0,0,33.63,1.63H672.06V544.14Z" transform="translate(0.47 0.88)"/><path class="cls-4" d="M114,750a45.43,45.43,0,0,0,1.42,12.51,16.13,16.13,0,0,0,4.63,7.71,17.67,17.67,0,0,0,8.33,3.91,62.28,62.28,0,0,0,12.6,1.07h62.69v27.16H134.17A109.11,109.11,0,0,1,109.64,800q-10.11-2.36-16.52-7.3a28.27,28.27,0,0,1-9.3-12.51,50.34,50.34,0,0,1-2.9-18V680h33v70Z" transform="translate(0.47 0.88)"/><path class="cls-4" d="M368.14,778.38a41.59,41.59,0,0,1-13.63,14.15q-9.08,6.06-22.66,9.58t-31.74,3.51q-18.17,0-31.84-3.51t-22.75-9.58a41.65,41.65,0,0,1-13.62-14.15,34.76,34.76,0,0,1-4.54-17.28V680h32.95v69.28a42.2,42.2,0,0,0,1.55,11.62,20.9,20.9,0,0,0,5.88,9.57q4.32,4.09,12.11,6.5t20.26,2.4q12.38,0,20.12-2.4t12.06-6.5a20.57,20.57,0,0,0,5.84-9.57,43.38,43.38,0,0,0,1.51-11.62V680h33V761.1a34.86,34.86,0,0,1-4.54,17.28Z" transform="translate(0.47 0.88)"/><path class="cls-4" d="M520.09,714.44q-3.48-1.68-9.17-3.82T498,706.56a150.31,150.31,0,0,0-15.68-3.2A115.05,115.05,0,0,0,465,702.07q-7.12,0-12.16.44a77.22,77.22,0,0,0-8.46,1.16,25.79,25.79,0,0,0-5.42,1.65,12.17,12.17,0,0,0-3.08,1.91,4.72,4.72,0,0,0-1.38,2,5.85,5.85,0,0,0-.31,1.78,5.76,5.76,0,0,0,2.67,4.67,26,26,0,0,0,7.3,3.57,108.72,108.72,0,0,0,10.78,2.94q6.15,1.38,13,2.84t14.25,3.21q7.35,1.74,14.25,4a101.72,101.72,0,0,1,13,5.39,49.45,49.45,0,0,1,10.78,7.17,31.19,31.19,0,0,1,7.3,9.44,26.92,26.92,0,0,1,2.67,12.19,33.88,33.88,0,0,1-3.12,15.14,32.52,32.52,0,0,1-8.32,10.69,42,42,0,0,1-12.07,7,83.81,83.81,0,0,1-14.38,4,119.08,119.08,0,0,1-15.23,1.87q-7.69.44-14.64.44a177.45,177.45,0,0,1-33.62-3,168.7,168.7,0,0,1-27.29-7.43V766a112,112,0,0,0,27.83,10.6,140.22,140.22,0,0,0,33.43,3.83A107.4,107.4,0,0,0,480,779.32a42.23,42.23,0,0,0,10.38-2.86,11.77,11.77,0,0,0,5.07-3.78,7.24,7.24,0,0,0,1.34-3.92,6.47,6.47,0,0,0-2.67-5.12,24.76,24.76,0,0,0-7.3-3.83,95.37,95.37,0,0,0-10.78-3q-6.13-1.37-13-2.76t-14.21-3q-7.29-1.6-14.2-3.79a103.3,103.3,0,0,1-13-5.07,47.52,47.52,0,0,1-10.78-6.86,30,30,0,0,1-7.3-9.17,26.08,26.08,0,0,1-2.67-12.07,31.71,31.71,0,0,1,2.85-14,30.55,30.55,0,0,1,7.7-10,40.65,40.65,0,0,1,11.22-6.72,75.65,75.65,0,0,1,13.4-4,114.9,114.9,0,0,1,14.25-2q7.21-.54,13.71-.53,7.13,0,14.65.71c5,.47,10,1.14,14.82,2s9.58,1.86,14.12,3,8.74,2.32,12.6,3.57v28.31Z" transform="translate(0.47 0.88)"/><polygon class="cls-4" points="561.96 803.21 561.96 680.87 595 680.87 595 803.21 561.96 803.21 561.96 803.21"/><polygon class="cls-4" points="747.96 803.21 665.41 719.16 665.41 803.21 632.38 803.21 632.38 680.87 668.26 680.87 750.9 765.28 750.9 680.87 783.75 680.87 783.75 803.21 747.96 803.21 747.96 803.21"/><polygon class="cls-4" points="822.04 803.21 822.04 680.87 855.08 680.87 855.08 803.21 822.04 803.21 822.04 803.21"/></svg>