<?xml version="1.0" encoding="utf-8"?>
<!-- Generator: Adobe Illustrator 25.4.0, SVG Export Plug-In . SVG Version: 6.00 Build 0)  -->
<svg version="1.1" id="PULSIVA" xmlns="http://www.w3.org/2000/svg" xmlns:xlink="http://www.w3.org/1999/xlink" x="0px" y="0px"
	 viewBox="0 0 500 500" style="enable-background:new 0 0 500 500;" xml:space="preserve">
<style type="text/css">
	.ps0{fill:#B8B8B8;}
	.ps1{fill:#1D1E1C;}
	.ps2{fill:#E30614;}
	.ps3{fill:#1A1A19;}
</style>
<rect class="ps0" width="500" height="500"/>
<path class="ps1" d="M64.09,219.5h17.25v7.41h0.2c6.8-7.31,12.78-8.83,20.29-8.83c17.65,0,31.55,9.54,31.55,28.61
	c0,17.65-13.19,29.22-30.33,29.22c-10.04,0-17.45-3.25-20.9-8.12h-0.2v26.28H64.09V219.5z M98.07,262.71
	c9.03,0,16.84-5.38,16.84-15.73c0-10.35-7.81-15.72-16.84-15.72c-8.92,0-16.73,5.37-16.73,15.72
	C81.34,257.33,89.15,262.71,98.07,262.71"/>
<rect x="288.12" y="185.94" class="ps2" width="17.85" height="27.39"/>
<path class="ps3" d="M179.22,266.57h-0.2c-3.25,4.56-11.77,9.34-22.22,9.34c-9.23,0-23.33-3.55-23.33-19.58V219.5h17.85v31.45
	c0,7.51,3.95,11.16,12.17,11.16c9.64,0,15.11-5.38,15.11-15.42V219.5h17.85v54.37H179.2v-7.3H179.22z"/>
<rect x="202.43" y="200.23" class="ps3" width="17.85" height="73.65"/>
<path class="ps3" d="M240.67,257.03c0.81,4.66,4.06,7.71,13.29,7.71c8.11,0,12.88-1.93,12.88-5.88c0-3.05-1.52-4.26-10.15-5.48
	l-16.23-2.23c-11.36-1.52-17.85-5.07-17.85-15.42c0-14.71,14.91-18.26,29.73-18.26c25.05,0,30.93,8.21,32.15,18.36h-19.68
	c-1.01-5.58-6.9-7.2-12.07-7.2c-4.66,0-11.67,0.41-11.67,5.78c0,2.53,1.32,4.26,9.03,5.07l12.38,1.32
	c18.16,1.92,24.04,7.3,24.04,16.73c0,16.13-18.05,18.36-33.57,18.36c-20.59,0-31.04-5.99-31.95-18.87L240.67,257.03L240.67,257.03z"
	/>
<rect x="288.12" y="219.5" class="ps3" width="17.85" height="54.37"/>
<polygon class="ps3" points="306.68,219.5 326.97,219.5 341.78,257.64 356.59,219.5 376.88,219.5 351.93,273.87 331.64,273.87 "/>
<path class="ps3" d="M370.68,236.14c2.13-16.74,17.55-18.66,32.16-18.66c25.56,0,31.04,8.32,31.04,18.46v26.98
	c0,4.77,0.81,8.21,2.03,10.95h-17.86c-0.61-1.93-1.12-3.85-1.21-5.78c-6.09,6.09-17.45,7.81-25.47,7.81
	c-14.2,0-24.14-4.97-24.14-17.65c0-13.18,11.67-16.03,22.52-16.73l18.96-1.32c5.48-0.41,7.31-1.32,7.31-5.68
	c0-4.36-3.65-6.49-14-6.49c-7.61,0-11.57,0.61-14.1,8.11L370.68,236.14L370.68,236.14z M416.63,247.4c-3.35,1.62-7,2.03-10.55,2.33
	l-10.35,0.91c-6.29,0.51-9.43,2.23-9.43,7.1s4.57,7.61,11.26,7.61c9.03,0,19.07-4.36,19.07-13.49L416.63,247.4L416.63,247.4z"/>
<path class="ps3" d="M64.09,219.5h17.25v7.41h0.2c6.8-7.31,12.78-8.83,20.29-8.83c17.65,0,31.55,9.54,31.55,28.61
	c0,17.65-13.19,29.22-30.33,29.22c-10.04,0-17.45-3.25-20.9-8.12h-0.2v26.28H64.09V219.5z M98.07,262.71
	c9.03,0,16.84-5.38,16.84-15.73c0-10.35-7.81-15.72-16.84-15.72c-8.92,0-16.73,5.37-16.73,15.72
	C81.34,257.33,89.15,262.71,98.07,262.71"/>
</svg>
