<?xml version="1.0" encoding="utf-8"?>
<!-- Generator: Adobe Illustrator 25.4.0, SVG Export Plug-In . SVG Version: 6.00 Build 0)  -->
<svg version="1.1" id="VEGA_00000034771063666912462870000018016968192629442748_"
	 xmlns="http://www.w3.org/2000/svg" xmlns:xlink="http://www.w3.org/1999/xlink" x="0px" y="0px" viewBox="0 0 500 500"
	 style="enable-background:new 0 0 500 500;" xml:space="preserve">
<style type="text/css">
	.vg0{fill:#084783;}
	.vg1{fill:#FFFFFF;}
</style>
<g>
	<rect class="vg0" width="500" height="500"/>
</g>
<g>
	<polygon class="vg1" points="371.97,197.35 329.92,302.75 352.62,302.75 382.04,229.01 395.25,262.12 377.02,262.12 368.61,283.2 
		403.66,283.2 411.46,302.75 434.15,302.75 392.1,197.35 	"/>
	<g>
		<path class="vg1" d="M338.19,249.95c0-2.9-0.23-5.75-0.66-8.53h-46.39l-8.41,21.08h32.01c-4.73,12.03-16.03,20.51-29.24,20.51
			c-17.46,0-31.62-14.8-31.62-33.06s14.16-33.06,31.62-33.06c7.78,0,14.89,2.95,20.4,7.82l8.1-20.29
			c-8.22-5.44-17.99-8.61-28.49-8.61c-29.11,0-52.7,24.24-52.7,54.14s23.6,54.14,52.7,54.14
			C314.6,304.09,338.19,279.85,338.19,249.95"/>
	</g>
	<polygon class="vg1" points="183.67,197.35 141.62,302.75 225.34,302.75 233.75,281.67 172.72,281.67 181.9,258.67 217.26,258.67 
		225.67,237.59 190.31,237.59 197.95,218.43 233.31,218.43 241.73,197.35 	"/>
	<polygon class="vg1" points="107.9,302.75 128.78,302.75 170.83,197.35 148.14,197.35 118.34,272.03 88.54,197.35 65.85,197.35 	
		"/>
</g>
</svg>
